<svg width="566" height="314" viewBox="0 0 566 314" fill="none" xmlns="http://www.w3.org/2000/svg">
<path d="M427.918 37.0842C386.21 64.1576 336.453 80.0113 283.038 80.0113C229.623 80.0113 179.867 64.2795 138.159 37.0842L0.597107 226.354C80.9636 281.476 178.159 313.672 282.916 313.672C387.673 313.672 484.991 281.354 565.236 226.354L427.918 37.0842Z" fill="#F3F1F4"/>
<path d="M427.918 37.0842L414.259 18.3035L414.137 18.1815L410.478 13.1815C403.161 3.30333 395.966 -3.52593 378.405 3.7912C375.966 5.01072 373.405 6.23025 370.844 7.44977C344.014 19.645 314.258 26.4743 282.916 26.4743C251.575 26.4743 221.818 19.645 194.989 7.44977C194.989 7.44977 194.989 7.44977 194.867 7.44977C192.306 6.3522 189.867 5.13268 187.306 3.7912C169.745 -3.40398 162.55 3.42529 155.232 13.1815L151.574 18.1815L151.452 18.3035L137.793 37.0841C179.501 64.1575 229.257 80.0113 282.672 80.0113C336.453 80.0113 386.21 64.1576 427.918 37.0842Z" fill="#DB43B0"/>
<path d="M562.919 222.939L559.992 225.378C477.918 280.744 382.307 310.012 282.916 310.012C183.525 310.012 87.9149 280.744 5.84107 225.378L2.79227 223.305L0.597107 226.354C80.9636 281.476 178.159 313.672 282.916 313.672C387.673 313.672 484.991 281.354 565.236 226.354L562.919 222.939Z" fill="#47284D"/>
</svg>
