<svg width="321" height="316" viewBox="0 0 321 316" fill="none" xmlns="http://www.w3.org/2000/svg">
<g clip-path="url(#clip0_15_1021)">
<path d="M286.404 62.0647L245.441 57.3723C240.16 56.7674 234.935 58.8988 231.584 63.0254L209.069 90.7484C205.249 95.4523 204.505 101.945 207.163 107.391L222.825 139.487C225.156 144.265 229.764 147.523 235.045 148.127L276.008 152.82C281.29 153.425 286.515 151.293 289.866 147.167L312.38 119.444C316.2 114.74 316.944 108.247 314.286 102.801L298.625 70.7049C296.293 65.9275 291.686 62.6696 286.404 62.0647Z" stroke="white" stroke-width="9.33329" stroke-miterlimit="10"/>
<path d="M287.476 113.127C288.106 104.693 279.319 97.1616 267.849 96.3045C256.38 95.4473 246.571 101.589 245.941 110.023C245.31 118.456 254.097 125.988 265.567 126.845C277.037 127.702 286.845 121.56 287.476 113.127Z" fill="white"/>
<path d="M147.702 209.449C166.653 215.16 168.585 214.292 182.424 214.617C201.487 215.066 220.028 214.703 220.429 217.481C220.715 219.463 211.061 218.671 198.689 221.597C187.929 224.142 185.564 228.003 184.386 230.322C182.176 234.672 183.313 239.322 184.062 242.209C187.752 256.438 201.862 262.75 199.778 265.618C198.224 267.756 191.957 260.894 179.744 257.866C171.435 255.806 169.457 256.929 168.606 257.81C166.011 260.499 168.363 266.698 169.901 270.472C178.643 291.927 195.337 308.152 191.526 310.343C188.227 312.239 175.977 291.734 165.812 280.477C156.364 270.014 148.568 261.363 131.456 249.6C115.245 238.457 100.819 232.954 86.2833 227.41C61.6415 218.011 42.8626 215.588 43.0572 213.254C43.2305 211.176 48.9899 212.491 63.5793 212.544C88.226 212.635 91.6244 210.261 92.6218 207.984C93.4144 206.175 92.1745 203.173 89.6945 197.167C85.8574 187.875 81.5163 185.359 82.928 183.696C84.0195 182.41 86.8423 183.738 95.6306 188.603C105.066 193.826 105.419 195.171 107.241 193.699C109.781 191.649 104.803 183.613 100.517 171.23C96.9356 160.885 93.6281 155.349 95.4926 154.747C97.384 154.136 105.88 171.98 113.125 182.695C123.085 197.425 136.248 205.998 147.702 209.449Z" stroke="white" stroke-width="9.33329" stroke-miterlimit="10"/>
<path d="M144.799 236.184C147.489 231.351 142.425 223.399 133.488 218.424C124.55 213.449 115.124 213.334 112.433 218.168C109.743 223.001 114.807 230.953 123.744 235.928C132.682 240.903 142.108 241.018 144.799 236.184Z" fill="white"/>
<path d="M133.328 90.1171C144.277 69.0864 130.489 40.2373 102.532 25.6808C74.5736 11.1243 43.0326 16.3728 32.0829 37.4035C21.1331 58.4342 34.921 87.2833 62.8789 101.84C90.8369 116.396 122.378 111.148 133.328 90.1171Z" stroke="white" stroke-width="10.6666" stroke-miterlimit="10"/>
<path d="M108.225 73.3835C103.842 81.8 89.2619 82.881 75.6579 75.798C62.054 68.7151 54.5783 56.1504 58.9604 47.7339" stroke="white" stroke-width="9.33329" stroke-miterlimit="10" stroke-linecap="round"/>
<path d="M135 18.9781C139.541 15.0741 152.772 4.78013 171.409 4.6684C190.965 4.55107 209.639 15.6855 221.245 33.6856" stroke="white" stroke-width="9.33329" stroke-miterlimit="10"/>
<path d="M198.332 25.1279L219.844 31.3114L226.015 9.79541L232.525 21.5486L226.349 43.0562L204.841 36.8809L198.332 25.1279Z" fill="white"/>
<path d="M287.79 177.557C289.267 183.36 292.603 199.789 284.415 216.531C275.823 234.099 257.546 245.873 236.262 248.264" stroke="white" stroke-width="9.33329" stroke-miterlimit="10"/>
<path d="M254.117 231.547L239.012 248.065L255.539 263.16L242.117 263.764L225.599 248.668L240.695 232.15L254.117 231.547Z" fill="white"/>
<path d="M58.9256 181.757C53.1404 180.21 37.177 175.092 26.5711 159.767C15.4422 143.686 14.1014 121.986 22.4164 102.249" stroke="white" stroke-width="9.33329" stroke-miterlimit="10"/>
<path d="M28.2767 125.995L21.2467 104.745L0 111.787L6.03224 99.7822L27.2747 92.748L34.3089 113.99L28.2767 125.995Z" fill="white"/>
</g>
<defs>
<clipPath id="clip0_15_1021">
<rect width="320.53" height="315.133" fill="white"/>
</clipPath>
</defs>
</svg>
