<svg width="59" height="58" viewBox="0 0 59 58" fill="none" xmlns="http://www.w3.org/2000/svg">
<path d="M49.9183 8.58126C44.5029 3.16587 37.158 0.123535 29.4995 0.123535C21.841 0.123535 14.4962 3.16587 9.08077 8.58126C3.66538 13.9966 0.623047 21.3415 0.623047 29C0.623047 36.6585 3.66538 44.0034 9.08077 49.4188C14.4962 54.8341 21.841 57.8765 29.4995 57.8765C37.158 57.8765 44.5029 54.8341 49.9183 49.4188C55.3337 44.0034 58.376 36.6585 58.376 29C58.376 21.3415 55.3337 13.9966 49.9183 8.58126ZM47.0101 46.5106C43.5454 49.9634 39.1352 52.3121 34.3365 53.2601C29.5379 54.2081 24.5659 53.713 20.0484 51.8372C15.5309 49.9614 11.6706 46.7891 8.95482 42.7208C6.23906 38.6526 4.78966 33.8708 4.78966 28.9794C4.78966 24.088 6.23906 19.3062 8.95482 15.238C11.6706 11.1697 15.5309 7.99739 20.0484 6.12159C24.5659 4.2458 29.5379 3.75066 34.3365 4.69868C39.1352 5.6467 43.5454 7.99538 47.0101 11.4481C49.3374 13.7362 51.1859 16.4648 52.4476 19.4747C53.7094 22.4847 54.3592 25.7157 54.3592 28.9794C54.3592 32.2431 53.7094 35.4741 52.4476 38.484C51.1859 41.494 49.3374 44.2225 47.0101 46.5106Z" fill="white"/>
<path d="M48.6606 31.0625L46.3713 30.3612C46.7364 28.5854 46.6799 26.7488 46.2063 24.9988C46.113 24.6972 46.0028 24.4011 45.8763 24.1119L47.6088 21.9256C47.7767 21.713 47.9011 21.4694 47.9749 21.2087C48.0486 20.948 48.0704 20.6753 48.0387 20.4062C48.0071 20.1372 47.9229 19.8769 47.7907 19.6404C47.6585 19.4039 47.4811 19.1957 47.2684 19.0278C47.0558 18.8599 46.8122 18.7355 46.5515 18.6617C46.2908 18.5879 46.0181 18.5662 45.7491 18.5978C45.48 18.6294 45.2197 18.7137 44.9832 18.8459C44.7467 18.978 44.5386 19.1555 44.3706 19.3681L43.195 20.8531C42.2569 20.2337 41.2054 19.8061 40.1012 19.595H39.8125V16.625C39.8125 16.078 39.5952 15.5534 39.2084 15.1666C38.8216 14.7798 38.297 14.5625 37.75 14.5625C37.203 14.5625 36.6784 14.7798 36.2916 15.1666C35.9048 15.5534 35.6875 16.078 35.6875 16.625V20.585C34.9641 21.1645 34.3435 21.8618 33.8519 22.6475L30.4281 20.9356C29.9411 20.7119 29.386 20.6866 28.8806 20.865C28.3752 21.0435 27.9591 21.4117 27.7204 21.8916C27.4818 22.3716 27.4394 22.9256 27.6022 23.4362C27.7649 23.9469 28.1201 24.3742 28.5925 24.6275L31.7688 26.2156C31.1328 27.2356 30.3705 28.1711 29.5 29C28.6976 29.8424 27.7894 30.5773 26.7981 31.1862L25.21 28.01C25.0947 27.759 24.9302 27.5337 24.7262 27.3475C24.5222 27.1613 24.2829 27.018 24.0224 26.926C23.762 26.8341 23.4857 26.7954 23.21 26.8122C22.9343 26.8291 22.6648 26.9011 22.4175 27.0241C22.1702 27.147 21.9501 27.3184 21.7703 27.5281C21.5904 27.7377 21.4546 27.9814 21.3707 28.2445C21.2868 28.5077 21.2566 28.785 21.282 29.06C21.3073 29.3351 21.3876 29.6022 21.5181 29.8456L23.23 33.2694C22.4443 33.761 21.747 34.3816 21.1675 35.105H17.125C16.578 35.105 16.0534 35.3223 15.6666 35.7091C15.2798 36.0959 15.0625 36.6205 15.0625 37.1675C15.0625 37.7145 15.2798 38.2391 15.6666 38.6259C16.0534 39.0127 16.578 39.23 17.125 39.23H20.1569V39.5394C20.3675 40.6437 20.7951 41.6953 21.415 42.6331L19.93 43.8088C19.505 44.1491 19.2318 44.6436 19.17 45.1845C19.1082 45.7254 19.2628 46.2688 19.6 46.6963C19.9403 47.1212 20.4348 47.3944 20.9758 47.4562C21.5167 47.518 22.0601 47.3635 22.4875 47.0262L24.6737 45.2937C24.9629 45.4203 25.259 45.5305 25.5606 45.6237C26.5113 45.9044 27.4982 46.0434 28.4894 46.0363C29.3063 46.0256 30.1208 45.9428 30.9231 45.7887L31.5625 48.1606C31.6404 48.4211 31.769 48.6636 31.9409 48.8741C32.1128 49.0847 32.3246 49.2592 32.5642 49.3877C32.8038 49.5161 33.0664 49.5959 33.337 49.6225C33.6075 49.649 33.8806 49.6218 34.1406 49.5425C34.4159 49.4827 34.6761 49.3672 34.905 49.2031C35.134 49.0389 35.3268 48.8296 35.4718 48.5881C35.6167 48.3465 35.7106 48.0778 35.7477 47.7986C35.7848 47.5193 35.7643 47.2354 35.6875 46.9644L34.9862 44.675C36.6217 43.9517 38.1543 43.0155 39.5444 41.8906L40.4931 42.8394C40.8796 43.2235 41.4023 43.4391 41.9472 43.4391C42.4921 43.4391 43.0148 43.2235 43.4012 42.8394C43.7854 42.4529 44.001 41.9302 44.001 41.3853C44.001 40.8404 43.7854 40.3177 43.4012 39.9312L42.4525 38.9825C43.5709 37.5918 44.5003 36.0591 45.2163 34.4244L47.5262 35.1256C48.0651 35.2761 48.6415 35.2063 49.1289 34.9317C49.6163 34.657 49.9746 34.2001 50.125 33.6613C50.2754 33.1224 50.2057 32.546 49.931 32.0586C49.6564 31.5712 49.1994 31.2129 48.6606 31.0625ZM38.08 37.4975C34.8006 40.7769 29.83 42.6125 26.7775 41.6225C26.1053 41.4359 25.5034 41.0541 25.0482 40.5255C24.593 39.9968 24.3047 39.345 24.22 38.6525C24.0137 37.58 24.22 37.3119 26.7981 35.8269C28.8564 34.8011 30.7311 33.4421 32.3462 31.805C34.0253 30.1632 35.4193 28.2533 36.4712 26.1537C37.6675 24.0912 38.0594 23.4931 38.7606 23.4931H39.2969C39.9894 23.5779 40.6412 23.8661 41.1698 24.3213C41.6985 24.7766 42.0803 25.3784 42.2669 26.0506C43.195 29.3506 41.3594 34.3212 38.08 37.58V37.4975Z" fill="white"/>
<path d="M25.8282 12.9126C26.3752 12.7923 26.852 12.4596 27.1537 11.9877C27.4554 11.5158 27.5573 10.9434 27.4369 10.3964C27.3166 9.84935 26.9839 9.37255 26.512 9.07085C26.0401 8.76916 25.4677 8.66727 24.9207 8.78761C21.5258 9.56019 18.3818 11.1796 15.7816 13.4949C13.1814 15.8102 11.2097 18.746 10.05 22.0289C9.95856 22.2848 9.91856 22.5562 9.93234 22.8276C9.94611 23.0991 10.0134 23.3651 10.1303 23.6104C10.2472 23.8557 10.4115 24.0755 10.6136 24.2572C10.8157 24.4388 11.0518 24.5787 11.3082 24.6689C11.5641 24.7603 11.8355 24.8003 12.1069 24.7866C12.3784 24.7728 12.6444 24.7055 12.8897 24.5886C13.135 24.4717 13.3548 24.3074 13.5365 24.1053C13.7181 23.9032 13.858 23.6671 13.9482 23.4107C14.8877 20.8041 16.4684 18.4761 18.5447 16.6414C20.6209 14.8066 23.1258 13.5243 25.8282 12.9126Z" fill="white"/>
</svg>
