<svg width="52" height="51" viewBox="0 0 52 51" fill="none" xmlns="http://www.w3.org/2000/svg">
<path d="M6.04995 45.4423C1.11073 40.5033 -1.84034 32.2261 2.88396 27.5019C7.62518 22.7604 15.9137 25.757 20.8244 30.6678C25.7628 35.6062 28.7149 43.8838 23.9904 48.6083C19.347 53.2518 11.0825 50.4749 6.04995 45.4423ZM4.99459 29.6125C1.52076 33.0863 4.6363 39.8075 8.16057 43.3317C11.6734 46.8445 18.4006 49.9769 21.8798 46.4977C25.3538 43.0235 22.2375 36.302 18.7138 32.7785C14.4432 28.5079 8.06675 26.5404 4.99459 29.6125Z" fill="white"/>
<path d="M18.136 42.6127C16.7368 42.2403 14.6029 41.3303 12.383 39.1106C10.1633 36.8908 9.25328 34.7569 8.88086 33.3577L11.7653 32.5898C11.9931 33.4458 12.6505 35.1569 14.4937 36.9999C16.3367 38.8431 18.0479 39.5005 18.9038 39.7283L18.136 42.6127Z" fill="white"/>
<path d="M28.0094 36.6687C23.2683 31.9276 26.2641 23.6394 31.1754 18.7283C36.1138 13.7898 44.3913 10.8379 49.1158 15.5623C53.8583 20.3046 50.8592 28.5935 45.9498 33.5028C41.0107 38.442 32.7335 41.393 28.0094 36.6687ZM33.2859 20.8389C29.7736 24.3512 26.6403 31.0784 30.1199 34.5581C33.5937 38.0319 40.3149 34.9164 43.8391 31.3921C47.3519 27.8793 50.4843 21.1521 47.0051 17.6729C43.8908 14.5587 37.4936 16.6312 33.2859 20.8389Z" fill="white"/>
<path d="M33.8633 30.673L33.0955 27.7886C33.9514 27.5608 35.6625 26.9034 37.5055 25.0602C39.3487 23.2172 40.0061 21.506 40.2339 20.6501L43.1184 21.418C42.7459 22.8172 41.8359 24.9511 39.6162 27.171C37.3964 29.3906 35.2625 30.3006 33.8633 30.673Z" fill="white"/>
<path d="M12.4672 17.9309C6.66862 17.9309 0.527588 14.5496 0.527588 8.97619C0.527588 3.37562 6.70882 0.0214844 12.4672 0.0214844C18.2658 0.0214844 24.4068 3.40278 24.4068 8.97619C24.4068 14.5769 18.2255 17.9309 12.4672 17.9309ZM12.4672 3.00639C8.59935 3.00639 3.51249 5.11144 3.51249 8.97619C3.51249 12.8302 8.57955 14.946 12.4672 14.946C16.335 14.946 21.4219 12.8409 21.4219 8.97619C21.4219 5.12228 16.3548 3.00639 12.4672 3.00639Z" fill="white"/>
<path d="M12.4684 10.4686C9.75735 10.4686 7.71956 9.43747 6.90259 8.41564L9.23409 6.55177C9.39398 6.73206 10.4883 7.48375 12.4684 7.48375C14.4485 7.48375 15.5429 6.73206 15.7076 6.5459L18.0343 8.41564C17.2173 9.43747 15.1794 10.4686 12.4684 10.4686Z" fill="white"/>
<path d="M42.4151 50.9637C39.0675 50.9637 36.4453 48.9971 36.4453 46.4864C36.4453 43.9757 39.0675 42.009 42.4151 42.009C45.7627 42.009 48.3849 43.9757 48.3849 46.4864C48.3849 48.9971 45.7627 50.9637 42.4151 50.9637ZM42.4151 44.9939C40.593 44.9939 39.4302 45.8779 39.4302 46.4864C39.4302 47.0949 40.593 47.9788 42.4151 47.9788C44.2372 47.9788 45.4 47.0949 45.4 46.4864C45.4 45.8779 44.2372 44.9939 42.4151 44.9939Z" fill="white"/>
<path d="M29.6232 8.48543C27.2561 6.11831 26.7926 2.87352 28.568 1.0982C30.3432 -0.677117 33.5883 -0.213562 35.9552 2.15356C38.0348 4.23304 38.9885 7.5629 37.0105 9.54079C35.0752 11.4761 31.7606 10.6228 29.6232 8.48543ZM30.6786 3.20882C30.2483 3.63915 30.4456 5.08643 31.7339 6.37481C32.8617 7.5026 34.3978 7.93203 34.8999 7.43007C35.4754 6.85458 34.8246 5.24413 33.8447 4.26419C32.6268 3.04635 31.1431 2.74437 30.6786 3.20882Z" fill="white"/>
</svg>
