<svg width="437" height="320" viewBox="0 0 437 320" fill="none" xmlns="http://www.w3.org/2000/svg">
<path d="M157.453 126.96C143.7 113.208 135.484 90.1618 148.638 77.0081C161.839 63.8065 184.916 72.1498 198.59 85.8232C212.34 99.573 220.559 122.621 207.405 135.775C194.476 148.704 171.465 140.972 157.453 126.96ZM154.514 82.8848C144.842 92.557 153.517 111.271 163.329 121.083C173.11 130.864 191.841 139.586 201.528 129.898C211.201 120.225 202.524 101.511 192.713 91.6998C180.822 79.8092 163.068 74.3312 154.514 82.8848Z" fill="#573459"/>
<path d="M191.1 119.081C187.205 118.044 181.263 115.511 175.082 109.33C168.902 103.149 166.368 97.208 165.331 93.3122L173.362 91.1743C173.997 93.5576 175.827 98.3217 180.959 103.453C186.091 108.585 190.855 110.416 193.238 111.05L191.1 119.081Z" fill="#573459"/>
<path d="M218.594 102.531C205.393 89.3307 213.734 66.2538 227.409 52.5796C241.159 38.8293 264.206 30.6103 277.361 43.7646C290.565 56.9686 282.215 80.0474 268.545 93.7164C254.793 107.469 231.747 115.685 218.594 102.531ZM233.285 58.4563C223.506 68.2357 214.782 86.9663 224.47 96.6548C234.142 106.327 252.856 97.6524 262.669 87.8397C272.449 78.0589 281.171 59.3284 271.484 49.6412C262.813 40.9701 245.001 46.7407 233.285 58.4563Z" fill="#573459"/>
<path d="M234.897 85.8375L232.759 77.8065C235.142 77.1721 239.906 75.3417 245.038 70.2097C250.17 65.078 252 60.3137 252.635 57.9307L260.666 60.0685C259.629 63.9644 257.095 69.9058 250.915 76.0866C244.734 82.2669 238.793 84.8006 234.897 85.8375Z" fill="#573459"/>
<path d="M175.323 50.3595C159.178 50.3595 142.079 40.9449 142.079 25.4268C142.079 9.83306 159.29 0.494108 175.323 0.494108C191.468 0.494108 208.566 9.90869 208.566 25.4268C208.566 41.0208 191.356 50.3595 175.323 50.3595ZM175.323 8.80501C164.554 8.80501 150.39 14.6661 150.39 25.4268C150.39 36.1576 164.499 42.0486 175.323 42.0486C186.092 42.0486 200.256 36.1875 200.256 25.4268C200.256 14.6963 186.147 8.80501 175.323 8.80501Z" fill="#573459"/>
<path d="M175.323 29.5823C167.775 29.5823 162.101 26.7114 159.826 23.8663L166.318 18.6767C166.763 19.1787 169.81 21.2717 175.323 21.2717C180.836 21.2717 183.883 19.1787 184.342 18.6604L190.82 23.8663C188.546 26.7114 182.871 29.5823 175.323 29.5823Z" fill="#573459"/>
<path d="M258.709 142.333C249.388 142.333 242.087 136.858 242.087 129.867C242.087 122.877 249.388 117.401 258.709 117.401C268.03 117.401 275.331 122.877 275.331 129.867C275.331 136.858 268.03 142.333 258.709 142.333ZM258.709 125.712C253.636 125.712 250.398 128.173 250.398 129.867C250.398 131.561 253.636 134.023 258.709 134.023C263.782 134.023 267.02 131.561 267.02 129.867C267.02 128.173 263.782 125.712 258.709 125.712Z" fill="#573459"/>
<path d="M223.09 24.0602C216.499 17.4694 215.209 8.43489 220.152 3.49185C225.095 -1.4512 234.13 -0.160513 240.72 6.43031C246.51 12.2202 249.166 21.4916 243.658 26.9987C238.27 32.3872 229.041 30.0114 223.09 24.0602ZM226.029 9.36848C224.83 10.5666 225.38 14.5963 228.967 18.1836C232.107 21.3237 236.384 22.5194 237.782 21.1218C239.384 19.5194 237.572 15.0354 234.844 12.3069C231.453 8.9161 227.322 8.07531 226.029 9.36848Z" fill="#573459"/>
<path d="M310.453 201.63C296.7 187.878 288.484 164.832 301.638 151.678C314.839 138.476 337.916 146.82 351.59 160.493C365.34 174.243 373.559 197.29 360.405 210.445C347.476 223.374 324.465 215.642 310.453 201.63ZM307.514 157.555C297.842 167.227 306.517 185.941 316.329 195.753C326.11 205.534 344.841 214.255 354.528 204.568C364.201 194.895 355.524 176.181 345.713 166.37C333.822 154.479 316.068 149.001 307.514 157.555Z" fill="#573459"/>
<path d="M344.1 193.751C340.204 192.714 334.263 190.18 328.082 184C321.902 177.819 319.368 171.878 318.331 167.982L326.362 165.844C326.997 168.228 328.827 172.992 333.959 178.123C339.091 183.255 343.855 185.086 346.238 185.72L344.1 193.751Z" fill="#573459"/>
<path d="M371.594 177.201C358.393 164.001 366.734 140.924 380.409 127.25C394.159 113.499 417.206 105.28 430.361 118.434C443.565 131.639 435.215 154.717 421.545 168.386C407.793 182.139 384.747 190.355 371.594 177.201ZM386.285 133.126C376.506 142.906 367.782 161.636 377.47 171.325C387.142 180.997 405.856 172.322 415.669 162.51C425.449 152.729 434.171 133.998 424.484 124.311C415.813 115.64 398.001 121.411 386.285 133.126Z" fill="#573459"/>
<path d="M387.897 160.507L385.759 152.476C388.142 151.842 392.906 150.012 398.038 144.88C403.17 139.748 405 134.984 405.635 132.601L413.666 134.738C412.629 138.634 410.095 144.576 403.914 150.757C397.734 156.937 391.793 159.471 387.897 160.507Z" fill="#573459"/>
<path d="M328.323 125.029C312.178 125.029 295.079 115.615 295.079 100.097C295.079 84.503 312.29 75.164 328.323 75.164C344.468 75.164 361.566 84.5786 361.566 100.097C361.566 115.691 344.356 125.029 328.323 125.029ZM328.323 83.4749C317.554 83.4749 303.39 89.3361 303.39 100.097C303.39 110.827 317.498 116.719 328.323 116.719C339.092 116.719 353.256 110.857 353.256 100.097C353.256 89.3662 339.147 83.4749 328.323 83.4749Z" fill="#573459"/>
<path d="M328.323 104.252C320.775 104.252 315.101 101.381 312.826 98.5363L319.318 93.3467C319.763 93.8486 322.81 95.9416 328.323 95.9416C333.836 95.9416 336.883 93.8486 337.342 93.3303L343.82 98.5363C341.546 101.381 335.871 104.252 328.323 104.252Z" fill="#573459"/>
<path d="M411.709 217.003C402.388 217.003 395.087 211.528 395.087 204.537C395.087 197.546 402.388 192.071 411.709 192.071C421.03 192.071 428.331 197.546 428.331 204.537C428.331 211.528 421.03 217.003 411.709 217.003ZM411.709 200.382C406.636 200.382 403.398 202.843 403.398 204.537C403.398 206.231 406.636 208.692 411.709 208.692C416.782 208.692 420.02 206.231 420.02 204.537C420.02 202.843 416.782 200.382 411.709 200.382Z" fill="#573459"/>
<path d="M376.09 98.7301C369.499 92.1393 368.209 83.1048 373.152 78.1618C378.095 73.2187 387.13 74.5094 393.72 81.1002C399.51 86.8902 402.166 96.1615 396.658 101.669C391.27 107.057 382.041 104.681 376.09 98.7301ZM379.029 84.0384C377.83 85.2366 378.38 89.2662 381.967 92.8535C385.107 95.9936 389.384 97.1893 390.782 95.7917C392.384 94.1893 390.572 89.7053 387.844 86.9769C384.453 83.586 380.322 82.7452 379.029 84.0384Z" fill="#573459"/>
<path d="M161.604 304.342C147.851 290.59 139.635 267.544 152.789 254.39C165.99 241.189 189.067 249.532 202.74 263.205C216.491 276.955 224.71 300.003 211.555 313.157C198.627 326.086 175.616 318.354 161.604 304.342ZM158.665 260.267C148.993 269.939 157.668 288.653 167.48 298.465C177.261 308.246 195.992 316.968 205.679 307.28C215.352 297.607 206.675 278.893 196.864 269.082C184.973 257.191 167.219 251.713 158.665 260.267Z" fill="#573459"/>
<path d="M195.251 296.463C191.355 295.426 185.414 292.893 179.233 286.712C173.053 280.532 170.519 274.59 169.482 270.694L177.513 268.556C178.147 270.94 179.978 275.704 185.11 280.835C190.241 285.967 195.006 287.798 197.389 288.432L195.251 296.463Z" fill="#573459"/>
<path d="M222.745 279.914C209.544 266.713 217.885 243.636 231.56 229.962C245.31 216.211 268.357 207.992 281.511 221.147C294.716 234.351 286.366 257.43 272.696 271.098C258.944 284.851 235.898 293.067 222.745 279.914ZM237.436 235.838C227.657 245.618 218.933 264.348 228.621 274.037C238.293 283.709 257.007 275.035 266.819 265.222C276.6 255.441 285.322 236.71 275.635 227.023C266.964 218.352 249.152 224.123 237.436 235.838Z" fill="#573459"/>
<path d="M239.048 263.22L236.91 255.189C239.293 254.554 244.057 252.724 249.189 247.592C254.321 242.46 256.151 237.696 256.785 235.313L264.817 237.451C263.78 241.346 261.246 247.288 255.065 253.469C248.885 259.649 242.943 262.183 239.048 263.22Z" fill="#573459"/>
<path d="M179.474 227.742C163.329 227.742 146.23 218.327 146.23 202.809C146.23 187.215 163.441 177.876 179.474 177.876C195.619 177.876 212.717 187.291 212.717 202.809C212.717 218.403 195.507 227.742 179.474 227.742ZM179.474 186.187C168.705 186.187 154.541 192.048 154.541 202.809C154.541 213.54 168.649 219.431 179.474 219.431C190.243 219.431 204.406 213.57 204.406 202.809C204.406 192.078 190.298 186.187 179.474 186.187Z" fill="#573459"/>
<path d="M179.474 206.964C171.926 206.964 166.252 204.094 163.977 201.248L170.469 196.059C170.914 196.561 173.961 198.654 179.474 198.654C184.987 198.654 188.034 196.561 188.493 196.042L194.971 201.248C192.696 204.094 187.022 206.964 179.474 206.964Z" fill="#573459"/>
<path d="M262.86 319.716C253.539 319.716 246.238 314.24 246.238 307.249C246.238 300.259 253.539 294.783 262.86 294.783C272.18 294.783 279.482 300.259 279.482 307.249C279.482 314.24 272.18 319.716 262.86 319.716ZM262.86 303.094C257.787 303.094 254.549 305.555 254.549 307.249C254.549 308.943 257.787 311.405 262.86 311.405C267.933 311.405 271.171 308.943 271.171 307.249C271.171 305.555 267.933 303.094 262.86 303.094Z" fill="#573459"/>
<path d="M227.241 201.442C220.65 194.851 219.36 185.817 224.303 180.874C229.246 175.931 238.281 177.222 244.871 183.812C250.661 189.602 253.317 198.874 247.809 204.381C242.421 209.769 233.192 207.393 227.241 201.442ZM230.179 186.751C228.981 187.949 229.531 191.978 233.118 195.566C236.258 198.706 240.535 199.901 241.933 198.504C243.535 196.901 241.723 192.417 238.995 189.689C235.604 186.298 231.473 185.457 230.179 186.751Z" fill="#573459"/>
<path d="M15.5315 225.26C1.77921 211.508 -6.4375 188.462 6.71644 175.308C19.9175 162.107 42.9952 170.45 56.6683 184.123C70.4184 197.873 78.6378 220.921 65.4834 234.075C52.5546 247.004 29.5437 239.272 15.5315 225.26ZM12.5931 181.185C2.92085 190.857 11.5955 209.571 21.4082 219.383C31.189 229.164 49.9195 237.886 59.6067 228.198C69.2795 218.525 60.6026 199.811 50.7916 190C38.9009 178.109 21.1469 172.631 12.5931 181.185Z" fill="#573459"/>
<path d="M49.1791 217.381C45.2832 216.344 39.3418 213.811 33.161 207.63C26.9804 201.45 24.4467 195.508 23.4098 191.612L31.4409 189.474C32.0753 191.858 33.9056 196.622 39.0376 201.753C44.1693 206.885 48.9337 208.716 51.3167 209.35L49.1791 217.381Z" fill="#573459"/>
<path d="M76.6724 200.832C63.4716 187.631 71.813 164.554 85.4875 150.88C99.2376 137.129 122.285 128.91 135.439 142.065C148.644 155.269 140.293 178.347 126.624 192.016C112.872 205.769 89.8258 213.985 76.6724 200.832ZM91.3638 156.756C81.5844 166.536 72.8605 185.266 82.5488 194.955C92.221 204.627 110.935 195.952 120.747 186.14C130.528 176.359 139.25 157.628 129.562 147.941C120.891 139.27 103.079 145.041 91.3638 156.756Z" fill="#573459"/>
<path d="M92.9754 184.138L90.8375 176.107C93.2208 175.472 97.9849 173.642 103.117 168.51C108.249 163.378 110.079 158.614 110.713 156.231L118.744 158.369C117.707 162.264 115.174 168.206 108.993 174.387C102.813 180.567 96.8712 183.101 92.9754 184.138Z" fill="#573459"/>
<path d="M33.4016 148.66C17.2566 148.66 0.158032 139.245 0.158032 123.727C0.158032 108.133 17.3685 98.7942 33.4016 98.7942C49.5466 98.7942 66.6452 108.209 66.6452 123.727C66.6452 139.321 49.4344 148.66 33.4016 148.66ZM33.4016 107.105C22.6324 107.105 8.46893 112.966 8.46893 123.727C8.46893 134.458 22.5772 140.349 33.4016 140.349C44.1709 140.349 58.3343 134.488 58.3343 123.727C58.3343 112.996 44.226 107.105 33.4016 107.105Z" fill="#573459"/>
<path d="M33.402 127.882C25.8535 127.882 20.1796 125.011 17.9049 122.166L24.3965 116.977C24.8417 117.479 27.8888 119.572 33.402 119.572C38.9151 119.572 41.9622 117.479 42.4209 116.96L48.899 122.166C46.6243 125.011 40.9502 127.882 33.402 127.882Z" fill="#573459"/>
<path d="M116.788 240.633C107.467 240.633 100.166 235.158 100.166 228.167C100.166 221.177 107.467 215.701 116.788 215.701C126.108 215.701 133.409 221.177 133.409 228.167C133.409 235.158 126.108 240.633 116.788 240.633ZM116.788 224.012C111.714 224.012 108.477 226.473 108.477 228.167C108.477 229.861 111.714 232.323 116.788 232.323C121.861 232.323 125.099 229.861 125.099 228.167C125.099 226.473 121.861 224.012 116.788 224.012Z" fill="#573459"/>
<path d="M81.1688 122.36C74.578 115.769 73.2876 106.735 78.2306 101.792C83.1734 96.8489 92.2087 98.1395 98.799 104.73C104.589 110.52 107.245 119.792 101.737 125.299C96.3489 130.687 87.1199 128.311 81.1688 122.36ZM84.1072 107.669C82.9091 108.867 83.4584 112.896 87.0457 116.484C90.1858 119.624 94.4626 120.819 95.8608 119.422C97.4631 117.819 95.6511 113.335 92.9226 110.607C89.5318 107.216 85.4007 106.375 84.1072 107.669Z" fill="#573459"/>
</svg>
