<svg width="12" height="20" viewBox="0 0 12 20" fill="none" xmlns="http://www.w3.org/2000/svg">
<path d="M10.9999 1V2M10.9999 2C10.9899 5.352 9.31994 8.023 5.99194 10.014C2.66394 12.004 9.32794 8.014 5.99994 10C2.67194 11.99 0.999943 14.662 0.991943 18.014V19.014M10.9999 2H0.999943M10.9999 19.014V18.014C10.9899 14.662 9.31994 11.991 5.99194 10C2.66394 8.01 9.32794 12 5.99994 10.014C2.67194 8.023 0.999943 5.352 0.991943 2V1M0.999943 18H10.9999M1.99994 6H9.99994M1.99994 14H9.99994" stroke="#573459" stroke-width="1.75" stroke-linecap="round" stroke-linejoin="round"/>
</svg>
