<svg width="44" height="42" viewBox="0 0 44 42" fill="none" xmlns="http://www.w3.org/2000/svg">
<path d="M11.296 13.4352C15.6739 13.4352 19.2229 10.7598 19.2229 7.4595C19.2229 4.15923 15.6739 1.48389 11.296 1.48389C6.91813 1.48389 3.36914 4.15923 3.36914 7.4595C3.36914 10.7598 6.91813 13.4352 11.296 13.4352Z" stroke="white" stroke-width="1.82928" stroke-miterlimit="10"/>
<path d="M19.7527 36.626C22.3751 33.7306 21.142 28.3412 16.9985 24.5884C12.855 20.8357 7.37015 20.1407 4.74776 23.0361C2.12537 25.9316 3.35852 31.321 7.502 35.0738C11.6455 38.8265 17.1303 39.5215 19.7527 36.626Z" stroke="white" stroke-width="1.82928" stroke-miterlimit="10"/>
<path d="M36.9873 25.5243C40.7401 21.3808 41.435 15.896 38.5396 13.2736C35.6441 10.6513 30.2547 11.8843 26.502 16.0278C22.7493 20.1713 22.0543 25.6561 24.9498 28.2785C27.8452 30.9009 33.2346 29.6678 36.9873 25.5243Z" stroke="white" stroke-width="1.82928" stroke-miterlimit="10"/>
<path d="M29.106 7.50745C30.2014 6.41208 29.9311 4.36589 28.5024 2.93714C27.0736 1.5084 25.0274 1.23814 23.9321 2.33351C22.8367 3.42888 23.1069 5.47512 24.5356 6.90387C25.9644 8.33261 28.0106 8.60282 29.106 7.50745Z" stroke="white" stroke-width="1.82928" stroke-miterlimit="10"/>
<path d="M34.223 38.6782C36.2436 38.6782 37.8816 37.4224 37.8816 35.8733C37.8816 34.3242 36.2436 33.0684 34.223 33.0684C32.2024 33.0684 30.5645 34.3242 30.5645 35.8733C30.5645 37.4224 32.2024 38.6782 34.223 38.6782Z" stroke="white" stroke-width="1.82928" stroke-miterlimit="10"/>
<path d="M7.7594 7.4585C7.7594 7.4585 12.8814 8.19021 15.9302 7.4585" stroke="white" stroke-width="1.82928" stroke-miterlimit="10" stroke-linecap="round" stroke-linejoin="round"/>
<path d="M9.46674 26.8491C9.46674 26.8491 12.3936 31.1174 15.0765 32.9467" stroke="white" stroke-width="1.82928" stroke-miterlimit="10" stroke-linecap="round" stroke-linejoin="round"/>
<path d="M27.6376 23.6785C27.6376 23.6785 31.7839 20.6296 33.4913 17.8247" stroke="white" stroke-width="1.82928" stroke-miterlimit="10" stroke-linecap="round" stroke-linejoin="round"/>
</svg>
