<svg width="348" height="351" viewBox="0 0 348 351" fill="none" xmlns="http://www.w3.org/2000/svg">
<path d="M111.945 91.6167C111.14 102.389 94.8988 109.957 75.67 108.52C56.441 107.083 41.5057 97.1854 42.3107 86.413M169.934 291.448C161.325 303.029 138.839 300.89 119.709 286.67C100.58 272.45 92.0521 251.534 100.661 239.953M296.711 77.8051C305.357 85.3736 299.832 105.83 284.369 123.495C268.907 141.16 249.363 149.345 240.716 141.777M81.3614 44.0305C120.88 46.9838 151.285 71.1988 149.273 98.1163C147.261 125.034 113.595 144.461 74.0768 141.507C34.5586 138.554 4.15353 114.339 6.16513 87.4215C8.17673 60.504 41.8433 41.0772 81.3614 44.0305ZM172.163 217.911C211.476 247.135 225.906 294.285 204.395 323.223C182.883 352.161 133.575 351.929 94.2617 322.705C54.9487 293.48 40.5179 246.331 62.0297 217.393C83.5414 188.455 132.85 188.687 172.163 217.911ZM329.91 45.8508C351.516 64.7626 343.27 109.524 311.492 145.829C279.715 182.134 236.439 196.233 214.833 177.321C193.227 158.41 201.473 113.648 233.25 77.3432C265.028 41.0386 308.304 26.9389 329.91 45.8508ZM202.141 22.0183C214.187 36.4703 216.591 54.3212 207.511 61.8895C198.431 69.4579 181.305 63.8776 169.259 49.4256C157.213 34.9736 154.809 17.1227 163.889 9.55434C172.97 1.98602 190.095 7.56633 202.141 22.0183ZM306.293 243.725C307.377 255.496 293.069 266.437 274.334 268.162C255.6 269.887 239.534 261.744 238.45 249.973C237.366 238.202 251.674 227.261 270.409 225.536C289.143 223.811 305.209 231.954 306.293 243.725Z" stroke="white" stroke-width="10.6666" stroke-miterlimit="10" stroke-linecap="round"/>
</svg>
