<svg width="261" height="217" viewBox="0 0 261 217" fill="none" xmlns="http://www.w3.org/2000/svg">
<path d="M211.846 0C215.368 1.15986 215.444 4.46077 216.308 7.46768C220.614 22.4445 223.276 37.8376 227.903 52.7544L226.341 55.8599C225.275 56.5374 224.236 56.3358 223.096 56.0466C218.801 54.9571 212.305 50.0849 207.947 49.1731C207.294 49.0366 206.742 48.6699 206.096 49.1822C169.02 106.332 102.45 143.721 29.3887 160.126C23.1256 161.532 14.1438 163.801 7.95294 164.371C0.235655 165.08 -2.67699 157.964 2.8855 154.619C7.07774 152.098 16.9483 149.167 22.1731 146.875C81.2438 120.969 139.917 85.0328 169.923 33.0283L169.804 31.7762C166.651 30.2775 154.715 26.3601 152.958 24.4693C151.821 23.245 151.496 21.8113 152.779 20.5797L211.165 0.0746662L211.846 0Z" fill="white"/>
<path d="M260.015 65.8198C260.015 65.8198 221.005 108.94 155.829 150.208C94.4606 189.065 8.36541 216.733 8.36541 216.733H260.015L260.015 65.8198Z" fill="white"/>
</svg>
