<svg width="43" height="42" viewBox="0 0 43 42" fill="none" xmlns="http://www.w3.org/2000/svg">
<path d="M21.5 40.878C32.4784 40.878 41.3782 31.9782 41.3782 20.9998C41.3782 10.0213 32.4784 1.12158 21.5 1.12158C10.5216 1.12158 1.62183 10.0213 1.62183 20.9998C1.62183 31.9782 10.5216 40.878 21.5 40.878Z" stroke="white" stroke-width="1.82928" stroke-miterlimit="10"/>
<path d="M28.0854 34.0491C28.0854 34.0491 18.8171 37.7077 11.9878 31.854" stroke="white" stroke-width="1.82928" stroke-miterlimit="10" stroke-linecap="round" stroke-linejoin="round"/>
<path d="M12.9634 20.2679C12.9634 20.2679 14.6707 21.3655 17.3536 20.024C20.0366 18.6825 26.5001 20.6338 27.8415 21.3655C29.305 22.0972 31.622 21.4874 31.9879 19.0484C32.3537 16.8533 29.5488 10.3898 21.8659 10.6337C14.1829 10.8776 12.2316 14.5361 11.4999 15.5118C10.7682 16.8532 11.256 19.5362 12.9634 20.2679Z" stroke="white" stroke-width="1.82928" stroke-miterlimit="10" stroke-linecap="round" stroke-linejoin="round"/>
<path d="M13.4511 20.5117L9.54871 23.8044" stroke="white" stroke-width="1.82928" stroke-miterlimit="10" stroke-linecap="round" stroke-linejoin="round"/>
<path d="M11.2561 16.3655L8.08533 15.6338" stroke="white" stroke-width="1.82928" stroke-miterlimit="10" stroke-linecap="round" stroke-linejoin="round"/>
<path d="M16.378 10.9998L14.4268 8.19482" stroke="white" stroke-width="1.82928" stroke-miterlimit="10" stroke-linecap="round" stroke-linejoin="round"/>
<path d="M23.2074 10.6341L23.0854 7.46338" stroke="white" stroke-width="1.82928" stroke-miterlimit="10" stroke-linecap="round" stroke-linejoin="round"/>
<path d="M27.8416 12.4632L31.0123 9.78027" stroke="white" stroke-width="1.82928" stroke-miterlimit="10" stroke-linecap="round" stroke-linejoin="round"/>
<path d="M32.3538 17.707H36.3782" stroke="white" stroke-width="1.82928" stroke-miterlimit="10" stroke-linecap="round" stroke-linejoin="round"/>
<path d="M30.7683 21.8535L33.2074 25.1462" stroke="white" stroke-width="1.82928" stroke-miterlimit="10" stroke-linecap="round" stroke-linejoin="round"/>
<path d="M27.1098 20.8779L24.9147 24.2926" stroke="white" stroke-width="1.82928" stroke-miterlimit="10" stroke-linecap="round" stroke-linejoin="round"/>
</svg>
