<svg width="43" height="53" viewBox="0 0 43 53" fill="none" xmlns="http://www.w3.org/2000/svg">
<path d="M38.9648 49.8945H31.0578C32.3482 49.069 33.5583 48.0879 34.6642 46.9586C37.1951 44.3743 38.9579 41.2386 39.8398 37.8357C41.3207 36.6461 42.2743 34.8034 42.2743 32.7368C42.2743 30.6799 41.3295 28.8446 39.8603 27.6544C38.9838 24.1806 37.2086 20.9958 34.6532 18.3958C32.9344 16.647 30.956 15.2592 28.8076 14.2672L32.7979 6.73567C33.1977 5.98105 32.9217 5.03905 32.1813 4.63162L24.1047 0.186448C23.7493 -0.00919682 23.3317 -0.0528804 22.9449 0.0649204C22.5577 0.182825 22.2323 0.452586 22.0405 0.814891L11.8641 20.0222C11.4644 20.7768 11.7404 21.7188 12.4807 22.1263L12.4863 22.1294L10.3026 26.2509C9.90284 27.0055 10.1789 27.9475 10.9192 28.3549L16.3034 31.3184C16.5279 31.4419 16.7768 31.5048 17.0273 31.5048C17.1736 31.5048 17.3206 31.4833 17.4632 31.4399C17.8504 31.322 18.1757 31.0522 18.3678 30.6899L20.5514 26.5683L20.5569 26.5714C20.7814 26.6949 21.0304 26.7579 21.2809 26.7579C21.4272 26.7579 21.5741 26.7363 21.7168 26.693C22.1039 26.5751 22.4294 26.3053 22.6212 25.943L24.4307 22.5275C25.8845 23.0921 27.211 23.982 28.3269 25.1632C29.3889 26.2875 30.185 27.5978 30.6886 29.0194C29.9635 30.0732 29.5362 31.3547 29.5362 32.7367C29.5362 34.1188 29.9635 35.4003 30.6886 36.4542C29.2121 40.6312 25.3145 43.6054 20.7288 43.657C20.6487 43.6579 20.5686 43.6579 20.4888 43.657C18.5448 43.6356 16.8871 42.3289 16.2697 40.5263H20.6071C21.4485 40.5263 22.1307 39.8311 22.1307 38.9735C22.1307 38.116 21.4486 37.4208 20.6071 37.4208H2.25C1.40866 37.4208 0.726562 38.116 0.726562 38.9735C0.726562 39.8311 1.40866 40.5263 2.25 40.5263H6.8457V49.8945H2.25C1.40866 49.8945 0.726562 50.5898 0.726562 51.4473C0.726562 52.3048 1.40866 53 2.25 53H38.9648C39.8062 53 40.4883 52.3048 40.4883 51.4473C40.4883 50.5898 39.8062 49.8945 38.9648 49.8945ZM39.2273 32.7368C39.2273 34.6038 37.7371 36.1226 35.9053 36.1226C34.0736 36.1226 32.5834 34.6037 32.5834 32.7368C32.5834 30.8699 34.0736 29.351 35.9053 29.351C37.7371 29.351 39.2273 30.8698 39.2273 32.7368ZM29.393 6.62636L25.7526 13.4975L20.3572 10.528L23.9976 3.65681L29.393 6.62636ZM20.6644 23.1012L20.66 23.0988C20.6596 23.0986 20.6593 23.0983 20.6589 23.0981L15.2746 20.1346C15.2745 20.1345 15.2743 20.1345 15.2742 20.1344L15.269 20.1315L18.9094 13.2604L24.3048 16.2299L20.6644 23.1012ZM16.4109 27.8482L13.7076 26.3603L15.1673 23.605L17.8706 25.0928L16.4109 27.8482ZM25.8898 19.7742L27.3499 17.0184C31.3435 18.8063 34.5326 22.1308 36.191 26.2529C36.0962 26.2487 36.001 26.2456 35.9053 26.2456C34.9102 26.2456 33.9679 26.4798 33.128 26.8964C32.4907 25.4804 31.6166 24.168 30.5221 23.0095C29.1846 21.5936 27.6116 20.5028 25.8898 19.7742ZM9.89258 49.8945V40.5264H13.1169C13.8157 44.0422 16.841 46.7225 20.456 46.7624C20.5579 46.7635 20.6599 46.7635 20.7625 46.7624C24.2958 46.7226 27.6459 45.3088 30.1957 42.7814C31.4338 41.5543 32.4183 40.1275 33.12 38.5731C33.9619 38.9922 34.9069 39.2281 35.9053 39.2281C35.9934 39.2281 36.0809 39.2249 36.1682 39.2213C35.3326 41.2591 34.0991 43.1396 32.5077 44.7647C29.2681 48.0728 24.986 49.8945 20.4502 49.8945H9.89258Z" fill="white"/>
</svg>
