<svg width="33" height="32" viewBox="0 0 33 32" fill="none" xmlns="http://www.w3.org/2000/svg">
<path d="M32.1621 1.36232V22.0624C32.1621 22.8151 31.5519 23.4253 30.7993 23.4253C30.0467 23.4253 29.4365 22.8151 29.4365 22.0624V4.6527L2.48867 31.6004C2.22248 31.8665 1.8738 31.9996 1.52498 31.9996C1.17617 31.9996 0.827484 31.8665 0.561297 31.6004C0.0290469 31.0682 0.0290469 30.2053 0.561297 29.673L27.5092 2.72514H10.0992C9.34655 2.72514 8.73636 2.11495 8.73636 1.36232C8.73636 0.609699 9.34655 -0.000488276 10.0992 -0.000488276H30.7993C31.5519 -0.000550776 32.1621 0.609699 32.1621 1.36232Z" fill="#4F2C51"/>
</svg>
