<svg width="177" height="176" viewBox="0 0 177 176" fill="none" xmlns="http://www.w3.org/2000/svg">
<g clip-path="url(#clip0_0_1479)">
<path d="M166.63 96.215C166.63 115.743 155.179 131.574 139.779 131.574C124.379 131.574 108.763 106.719 108.763 87.1908C108.763 67.6624 124.379 60.8555 139.779 60.8555C155.179 60.8555 166.63 76.6865 166.63 96.215Z" fill="#D5B0EC"/>
<path d="M139.779 60.8557C139.458 60.8557 139.137 60.8598 138.816 60.8657C147.556 66.7125 153.236 78.6314 153.236 92.3851C153.236 110.895 142.948 126.08 128.761 127.614C132.296 130.109 136.043 131.574 139.779 131.574C155.179 131.574 166.63 115.743 166.63 96.2149C166.63 76.6864 155.179 60.8557 139.779 60.8557Z" fill="#BB80E0"/>
<path d="M40.0093 90.996C59.4586 93.8138 83.2475 93.4711 79.0733 122.285C74.8992 151.099 57.6378 159.131 38.1884 156.313C18.739 153.496 -2.06506 130.433 0.758848 110.94C3.58275 91.4467 20.5599 88.1787 40.0093 90.996Z" fill="#D5B0EC"/>
<path d="M56.7722 93.3503C63.6469 97.3942 67.7303 104.484 65.794 117.851C61.6882 146.194 44.9197 154.429 25.8615 152.009C29.8724 154.203 34.0607 155.716 38.1884 156.313C57.6378 159.131 74.8992 151.099 79.0734 122.285C82.0705 101.596 70.6508 95.9388 56.7722 93.3503Z" fill="#BB80E0"/>
<path d="M114.259 113.831C101.803 131.842 74.6005 134.613 59.0822 123.88C43.564 113.148 46.7406 93.7605 59.1967 75.7501C71.6528 57.7397 88.6719 47.926 104.19 58.6585C119.708 69.3911 126.715 95.821 114.259 113.831Z" fill="#D5B0EC"/>
<path d="M104.19 58.6586C95.2347 52.4649 85.7796 53.1146 76.9895 58.233C81.5483 58.2196 86.1268 59.6046 90.5817 62.6856C106.1 73.4182 113.107 99.8481 100.65 117.859C96.9989 123.138 92.0795 127.106 86.5599 129.81C97.3031 128.447 107.778 123.204 114.259 113.832C126.715 95.8211 119.709 69.3912 104.19 58.6586Z" fill="#BB80E0"/>
<path d="M86.0233 17.6767C102.886 31.647 110.416 50.3845 97.9229 65.4645C85.4296 80.5445 59.7219 83.7492 42.8589 69.7789C25.9959 55.8085 24.3628 29.9534 36.856 14.8734C49.3493 -0.206551 69.16 3.70636 86.0233 17.6767Z" fill="#D5B0EC"/>
<path d="M86.0233 17.6766C74.6909 8.28848 62.0278 3.44195 51.1485 5.84923C58.8189 7.3497 66.7895 11.5438 74.1925 17.6766C91.0555 31.647 98.5853 50.3845 86.092 65.4644C80.2669 72.4958 71.5683 76.944 62.2334 78.2746C75.6575 80.2013 89.6722 75.4239 97.9232 65.4644C110.416 50.3845 102.886 31.6473 86.0233 17.6766Z" fill="#BB80E0"/>
<path d="M98.0263 97.2065C95.0653 101.488 88.599 102.147 84.9102 99.5953C81.2214 97.0439 81.9763 92.4353 84.9374 88.1542C87.8984 83.8728 91.944 81.5401 95.6328 84.0914C99.3219 86.6424 100.987 92.9251 98.0263 97.2065Z" fill="#62B4FD"/>
<path d="M95.6328 84.0911C95.0942 83.7185 94.5476 83.4531 93.9983 83.2795C95.2578 86.1753 95.2839 89.7902 93.3648 92.5656C90.9485 96.0595 86.1983 97.1399 82.5274 96.0327C82.7879 97.4214 83.5431 98.6496 84.9099 99.5949C88.5987 102.146 95.065 101.488 98.026 97.2062C100.987 92.9248 99.322 86.6424 95.6328 84.0911Z" fill="#1690FB"/>
<path d="M146.12 93.642C146.12 98.9309 143.019 103.218 138.848 103.218C134.677 103.218 130.447 96.4868 130.447 91.1979C130.447 85.909 134.677 84.0654 138.848 84.0654C143.018 84.0654 146.12 88.353 146.12 93.642Z" fill="#62B4FD"/>
<path d="M138.848 84.0654C138.408 84.0654 137.969 84.0871 137.533 84.1301C139.141 85.8863 140.127 88.55 140.127 91.5324C140.127 96.1269 137.786 99.9642 134.437 100.893C135.774 102.307 137.314 103.218 138.848 103.218C143.019 103.218 146.12 98.9309 146.12 93.642C146.12 88.3527 143.018 84.0654 138.848 84.0654Z" fill="#1690FB"/>
<path d="M97.9225 65.4643C100.016 62.9371 101.545 60.307 102.564 57.6141C87.4925 48.6216 71.2197 58.3666 59.197 75.75C58.8062 76.3151 58.4246 76.8816 58.0524 77.4492C72.6659 81.1431 88.8097 76.4643 97.9225 65.4643Z" fill="#AE66D8"/>
<path d="M69.2558 34.6949C74.1202 38.7251 76.2924 44.1302 72.6885 48.4803C69.0847 52.8305 61.6686 53.7548 56.8042 49.7251C51.9398 45.6949 51.4688 38.2366 55.0727 33.8864C58.6766 29.5359 64.3914 30.6648 69.2558 34.6949Z" fill="#62B4FD"/>
<path d="M69.2558 34.6949C65.6245 31.6864 61.5198 30.2963 58.1723 31.5936C59.1974 32.1491 60.2125 32.8407 61.1925 33.653C66.0569 37.6831 68.2291 43.0882 64.6252 47.4384C63.1374 49.2345 60.9993 50.4445 58.6598 50.9649C63.398 53.4812 69.5181 52.3073 72.6885 48.4803C76.2924 44.1302 74.1203 38.725 69.2558 34.6949Z" fill="#1690FB"/>
<path d="M127.779 120.042C138.936 109.871 151.466 105.45 166.959 122.445C182.453 139.441 176.894 151.51 165.737 161.681C154.58 171.852 132.516 174.898 122.035 163.4C111.553 151.901 116.622 130.213 127.779 120.042Z" fill="#D5B0EC"/>
<path d="M167.778 123.363C172.128 134.337 166.92 142.992 158.587 150.588C148.215 160.044 128.419 163.339 117.263 154.518C118.163 157.82 119.718 160.858 122.035 163.399C132.516 174.897 154.58 171.851 165.736 161.681C176.692 151.694 182.248 139.877 167.778 123.363Z" fill="#BB80E0"/>
<path d="M161.531 117.247C148.492 106.591 137.603 111.086 127.779 120.042C126.541 121.171 125.378 122.442 124.302 123.825C129.044 128.567 134.424 131.574 139.779 131.574C148.966 131.574 156.747 125.939 161.531 117.247Z" fill="#AE66D8"/>
<path d="M138.804 135.131C142.603 131.668 146.87 130.162 152.146 135.95C157.422 141.737 155.529 145.847 151.73 149.31C147.931 152.774 140.418 153.811 136.848 149.896C133.279 145.98 135.005 138.595 138.804 135.131Z" fill="#62B4FD"/>
<path d="M152.146 135.95C152.105 135.905 152.066 135.865 152.025 135.822C151.609 137.81 150.258 139.557 148.495 141.164C145.13 144.231 138.855 145.393 134.984 142.899C134.671 145.486 135.183 148.069 136.848 149.895C140.418 153.811 147.931 152.774 151.73 149.31C155.529 145.847 157.422 141.737 152.146 135.95Z" fill="#1690FB"/>
<path d="M50.6401 92.3853C46.5498 104.817 48.3136 116.433 59.0826 123.88C64.2536 127.457 70.7223 129.531 77.5103 130.045C78.1459 127.645 78.6712 125.062 79.0737 122.285C82.5036 98.6075 67.0507 94.6186 50.6401 92.3853Z" fill="#AE66D8"/>
<path d="M39.2214 114.353C44.7155 115.149 51.4352 115.052 50.2561 123.191C49.077 131.331 44.2009 133.599 38.7071 132.804C33.213 132.008 27.3362 125.493 28.1341 119.987C28.9316 114.48 33.7276 113.557 39.2214 114.353Z" fill="#62B4FD"/>
<path d="M43.8421 114.998C43.8338 115.489 43.7936 116.014 43.7114 116.582C42.5324 124.722 37.6563 126.991 32.1625 126.195C31.1429 126.047 30.1106 125.702 29.11 125.203C30.948 128.986 34.9183 132.255 38.7075 132.804C44.2016 133.599 49.0774 131.331 50.2564 123.191C51.111 117.291 47.8138 115.719 43.8421 114.998Z" fill="#1690FB"/>
<path d="M108.763 87.1908C108.763 95.1974 111.39 104.098 115.548 111.816C123.233 98.8758 121.69 82.2892 114.605 70.1782C110.996 74.2441 108.763 79.8077 108.763 87.1908Z" fill="#80499E"/>
<path d="M91.7419 54.2327C90.8887 58.1071 89.0538 61.8887 86.0917 65.4644C80.2672 72.4951 71.57 76.9428 62.2361 78.2738C75.6592 80.1999 89.6722 75.4228 97.9229 65.4644C100.017 62.9371 101.545 60.3071 102.565 57.6141C98.9998 55.4877 95.3685 54.4104 91.7419 54.2327Z" fill="#80499E"/>
<path d="M90.5818 62.6855C92.56 64.0536 94.3991 65.6785 96.0783 67.507C96.7204 66.8525 97.3368 66.1718 97.9229 65.4644C100.017 62.9371 101.545 60.3071 102.565 57.6142C94.0969 52.5621 85.2505 53.4245 76.9913 58.2326C81.549 58.2199 86.1271 59.6048 90.5818 62.6855Z" fill="#80499E"/>
<path d="M56.7736 93.3511C63.6472 97.3949 67.7303 104.485 65.7939 117.851C65.3337 121.028 64.7139 123.951 63.9501 126.636C68.0816 128.536 72.715 129.682 77.51 130.044C78.1456 127.644 78.6708 125.062 79.0734 122.285C82.0705 101.597 70.6515 95.9395 56.7736 93.3511Z" fill="#80499E"/>
<path d="M149.233 111.257C144.973 120.361 137.63 126.654 128.763 127.614C132.297 130.108 136.044 131.574 139.779 131.574C148.966 131.574 156.747 125.939 161.531 117.247C157.208 113.715 153.122 111.849 149.233 111.257Z" fill="#80499E"/>
</g>
<defs>
<clipPath id="clip0_0_1479">
<rect width="176" height="176" fill="white" transform="translate(0.5)"/>
</clipPath>
</defs>
</svg>
