<svg width="142" height="142" viewBox="0 0 142 142" fill="none" xmlns="http://www.w3.org/2000/svg">
<path d="M15.4528 126.526C1.70048 112.774 -6.51623 89.7276 6.6377 76.574C19.8387 63.3724 42.9164 71.7157 56.5895 85.3891C70.3396 99.1389 78.5591 122.186 65.4046 135.341C52.4759 148.27 29.465 140.538 15.4528 126.526ZM12.5143 82.4506C2.84212 92.1228 11.5168 110.837 21.3294 120.649C31.1102 130.43 49.8408 139.151 59.528 129.464C69.2008 119.791 60.5239 101.076 50.7129 91.2657C38.8222 79.375 21.0682 73.897 12.5143 82.4506Z" fill="#573459"/>
<path d="M49.1004 118.647C45.2045 117.61 39.263 115.076 33.0822 108.896C26.9017 102.715 24.368 96.7739 23.3311 92.8781L31.3622 90.7402C31.9966 93.1235 33.8269 97.8876 38.9589 103.019C44.0906 108.151 48.8549 109.982 51.2379 110.616L49.1004 118.647Z" fill="#573459"/>
<path d="M76.5937 102.097C63.3929 88.8966 71.7343 65.8198 85.4088 52.1456C99.1589 38.3952 122.206 30.1763 135.361 43.3305C148.565 56.5345 140.215 79.6134 126.545 93.2823C112.793 107.035 89.747 115.251 76.5937 102.097ZM91.2851 58.0222C81.5057 67.8016 72.7817 86.5322 82.47 96.2207C92.1422 105.893 110.856 97.2183 120.669 87.4057C130.449 77.6248 139.171 58.8943 129.484 49.2071C120.813 40.5361 103.001 46.3066 91.2851 58.0222Z" fill="#573459"/>
<path d="M92.8966 85.4035L90.7588 77.3724C93.1421 76.738 97.9062 74.9076 103.038 69.7757C108.17 64.644 110 59.8796 110.635 57.4966L118.666 59.6344C117.629 63.5303 115.095 69.4718 108.915 75.6526C102.734 81.8328 96.7925 84.3665 92.8966 85.4035Z" fill="#573459"/>
<path d="M33.3229 49.9254C17.1779 49.9254 0.0793457 40.5109 0.0793457 24.9928C0.0793457 9.39901 17.2898 0.0600586 33.3229 0.0600586C49.468 0.0600586 66.5665 9.47464 66.5665 24.9928C66.5665 40.5868 49.3558 49.9254 33.3229 49.9254ZM33.3229 8.37096C22.5537 8.37096 8.39024 14.2321 8.39024 24.9928C8.39024 35.7235 22.4985 41.6145 33.3229 41.6145C44.0922 41.6145 58.2556 35.7534 58.2556 24.9928C58.2556 14.2623 44.1473 8.37096 33.3229 8.37096Z" fill="#573459"/>
<path d="M33.3232 29.1482C25.7747 29.1482 20.1009 26.2774 17.8262 23.4323L24.3178 18.2427C24.763 18.7446 27.8101 20.8376 33.3232 20.8376C38.8364 20.8376 41.8834 18.7446 42.3422 18.2263L48.8203 23.4323C46.5456 26.2774 40.8715 29.1482 33.3232 29.1482Z" fill="#573459"/>
<path d="M116.709 141.899C107.388 141.899 100.087 136.423 100.087 129.433C100.087 122.442 107.388 116.967 116.709 116.967C126.03 116.967 133.331 122.442 133.331 129.433C133.331 136.423 126.03 141.899 116.709 141.899ZM116.709 125.277C111.636 125.277 108.398 127.739 108.398 129.433C108.398 131.127 111.636 133.588 116.709 133.588C121.782 133.588 125.02 131.127 125.02 129.433C125.02 127.739 121.782 125.277 116.709 125.277Z" fill="#573459"/>
<path d="M81.09 23.6261C74.4992 17.0353 73.2088 8.00081 78.1519 3.05777C83.0946 -1.88528 92.13 -0.594595 98.7202 5.99622C104.51 11.7861 107.166 21.0575 101.658 26.5646C96.2702 31.9531 87.0412 29.5773 81.09 23.6261ZM84.0285 8.9344C82.8303 10.1326 83.3797 14.1622 86.967 17.7495C90.1071 20.8896 94.3839 22.0853 95.782 20.6877C97.3844 19.0853 95.5723 14.6013 92.8439 11.8729C89.453 8.48201 85.322 7.64123 84.0285 8.9344Z" fill="#573459"/>
</svg>
