<svg width="141" height="141" viewBox="0 0 141 141" fill="none" xmlns="http://www.w3.org/2000/svg">
<path d="M73.6902 34.4053C71.7104 33.2718 69.1867 33.958 68.0526 35.9375C65.2255 40.8753 61.1582 42.8295 55.9553 41.7433C45.7488 39.6377 37.3314 43.1098 32.251 51.52C31.0713 53.4728 31.6981 56.0119 33.6508 57.1916C35.6036 58.3711 38.143 57.7446 39.3225 55.7918C42.546 50.4559 47.5801 48.4516 54.2765 49.8326C62.9857 51.6502 70.6196 48.0814 75.2224 40.0425C76.3562 38.063 75.6699 35.539 73.6902 34.4053Z" fill="#573459"/>
<path d="M71.3838 76.0842L68.5148 69.518L82.7046 63.3173C86.66 61.589 90.077 59.0144 92.775 55.8033L98.9722 59.5924C100.918 60.7824 103.462 60.1694 104.651 58.2229C105.841 56.2764 105.228 53.734 103.282 52.5438L97.0775 48.75C99.5615 42.8544 99.8785 36.6403 98.3209 30.8752L104.973 27.9682C107.064 27.0547 108.018 24.6195 107.105 22.529C106.191 20.4382 103.755 19.484 101.665 20.3977L95.0126 23.3056C91.831 18.2312 87.0287 14.2375 81.053 12.0669L82.4826 4.94472C82.9315 2.708 81.4821 0.530759 79.2454 0.0818726C77.0067 -0.367289 74.8314 1.08237 74.3822 3.31909L72.9541 10.4349C68.7646 10.2333 64.5533 10.9978 60.5978 12.7262L46.6364 18.8269L43.7376 12.193C42.8241 10.1022 40.3891 9.14801 38.2984 10.0618C36.2076 10.9752 35.2534 13.4105 36.1671 15.501L39.0659 22.1349L24.7472 28.3918C20.7251 30.1493 17.3332 32.7572 14.6864 35.9116L8.47989 32.1167C6.53343 30.9262 3.99048 31.5397 2.80079 33.4862C1.61055 35.4327 2.22357 37.9751 4.17003 39.1653L10.3793 42.9618C8.04698 48.4936 7.50666 54.7709 9.1345 60.8322L2.47803 63.7403C0.387265 64.6538 -0.566964 67.0891 0.346782 69.1796C1.26025 71.2701 3.69553 72.2243 5.78602 71.3108L12.4417 68.4024C15.7838 73.715 20.7582 77.5801 26.4018 79.6265L24.9689 86.7647C24.52 89.0014 25.9694 91.1786 28.2061 91.6278C30.4426 92.0772 32.6204 90.6273 33.0692 88.3908L34.5013 81.2563C38.8767 81.4697 43.0541 80.6441 46.8536 78.9838L60.9446 72.8266L63.8136 79.3924C64.7271 81.4832 67.1618 82.4372 69.2528 81.5237C71.3433 80.6099 72.2973 78.1747 71.3838 76.0842ZM43.5457 71.4127C33.7718 75.6835 22.3464 71.2067 18.0751 61.4334C13.9406 53.1645 17.4386 40.6009 28.0547 35.962L63.9056 20.2964C73.7026 16.0154 85.0952 20.4792 89.3764 30.2763C93.6574 40.073 89.1939 51.4662 79.3968 55.7469L43.5457 71.4127Z" fill="#573459"/>
<path d="M136.87 101.476H130.276C129.638 97.6528 128.131 94.1204 125.965 91.0903L130.634 86.4213C132.247 84.808 132.247 82.1927 130.634 80.5794C129.021 78.9662 126.405 78.9662 124.792 80.5794L120.123 85.2484C117.092 83.0813 113.56 81.5747 109.738 80.9369V74.3438C109.738 72.0624 107.888 70.2129 105.607 70.2129C103.325 70.2129 101.476 72.0624 101.476 74.3438V80.9369C97.6531 81.575 94.1207 83.0816 91.0905 85.2484L86.4216 80.5794C84.8086 78.9662 82.1929 78.9662 80.5797 80.5794C78.9665 82.1927 78.9665 84.808 80.5797 86.4213L85.2487 91.0903C83.0816 94.1204 81.5752 97.6528 80.9372 101.476H74.3438C72.0624 101.476 70.2129 103.325 70.2129 105.606C70.2129 107.888 72.0624 109.737 74.3438 109.737H80.9372C81.5752 113.56 83.0819 117.092 85.2487 120.122L80.5797 124.792C78.9665 126.405 78.9665 129.02 80.5797 130.634C82.1927 132.247 84.8086 132.247 86.4216 130.634L91.0905 125.965C94.1209 128.131 97.6531 129.638 101.476 130.276V136.869C101.476 139.151 103.325 141 105.607 141C107.888 141 109.738 139.151 109.738 136.869V130.276C113.56 129.638 117.093 128.131 120.123 125.964L124.792 130.633C126.405 132.247 129.021 132.247 130.634 130.633C132.247 129.02 132.247 126.405 130.634 124.791L125.964 120.122C128.131 117.092 129.638 113.56 130.276 109.737H136.87C139.151 109.737 141 107.887 141 105.606C141 103.325 139.151 101.476 136.87 101.476ZM105.607 122.357C96.3703 122.357 88.856 114.843 88.856 105.606C88.856 96.3698 96.3703 88.8555 105.607 88.8555C114.844 88.8555 122.358 96.3698 122.358 105.606C122.358 114.843 114.843 122.357 105.607 122.357Z" fill="#573459"/>
<path d="M44.3388 101.895C33.5576 101.895 24.7864 110.666 24.7864 121.448C24.7864 132.229 33.5576 141 44.3388 141C55.1201 141 63.8913 132.229 63.8913 121.448C63.8913 110.666 55.1201 101.895 44.3388 101.895ZM44.3388 132.738C38.1131 132.738 33.0478 127.673 33.0478 121.447C33.0478 115.221 38.1128 110.156 44.3388 110.156C50.5649 110.156 55.6299 115.221 55.6299 121.447C55.6299 127.673 50.5646 132.738 44.3388 132.738Z" fill="#573459"/>
<path d="M128.607 58.1082C135.441 58.1082 141 52.5488 141 45.7156C141 38.8823 135.441 33.323 128.607 33.323C121.774 33.323 116.215 38.8823 116.215 45.7156C116.215 52.5488 121.774 58.1082 128.607 58.1082ZM128.607 41.5847C130.885 41.5847 132.738 43.4378 132.738 45.7156C132.738 47.9933 130.885 49.8464 128.607 49.8464C126.33 49.8464 124.477 47.9933 124.477 45.7156C124.477 43.4378 126.33 41.5847 128.607 41.5847Z" fill="#573459"/>
<path d="M16.72 102.74C16.1723 99.7303 12.384 98.3765 10.0501 100.353C7.50986 102.389 8.34237 106.591 11.4708 107.499C14.377 108.443 17.3744 105.724 16.72 102.74Z" fill="#573459"/>
<path d="M116.295 14.0264C116.811 16.8637 120.269 18.2977 122.64 16.6536C125.523 14.7722 124.849 10.2356 121.546 9.26792C118.639 8.32333 115.641 11.0406 116.295 14.0264Z" fill="#573459"/>
<path d="M105.606 99.7644L99.7646 105.606C98.1514 107.219 98.1514 109.835 99.7646 111.448C101.378 113.061 103.994 113.061 105.606 111.448L111.448 105.606C113.062 103.993 113.062 101.378 111.448 99.7644C109.835 98.1511 107.219 98.1511 105.606 99.7644Z" fill="#573459"/>
</svg>
