<svg width="141" height="141" viewBox="0 0 141 141" fill="none" xmlns="http://www.w3.org/2000/svg">
<path fill-rule="evenodd" clip-rule="evenodd" d="M136.039 32.9836L125.024 52.8118C124.247 54.2105 122.772 55.0781 121.172 55.0781H97.327L88.7593 70.5L97.327 85.9219H121.172C122.772 85.9219 124.247 86.7895 125.024 88.1882L136.039 108.016C136.779 109.347 136.779 110.965 136.039 112.296L125.024 132.124C124.247 133.523 122.772 134.391 121.172 134.391H94.7344C93.1343 134.391 91.6597 133.523 90.8827 132.124L81.1261 114.562H59.8739L50.1174 132.124C49.3403 133.523 47.8658 134.391 46.2656 134.391H19.8281C18.2279 134.391 16.7535 133.523 15.9764 132.124L4.96076 112.296C4.22141 110.965 4.22141 109.347 4.96076 108.016L15.9764 88.1882C16.7535 86.7895 18.2279 85.9219 19.8281 85.9219H43.673L52.2407 70.5L42.4139 52.8118C41.6745 51.4809 41.6745 49.8629 42.4139 48.532L53.4295 28.7039C54.2066 27.3051 55.6811 26.4375 57.2813 26.4375H81.1261L90.8827 8.87575C91.6597 7.47692 93.1343 6.60938 94.7344 6.60938H121.172C122.772 6.60938 124.247 7.47692 125.024 8.87575L136.039 28.7039C136.779 30.0348 136.779 31.6527 136.039 32.9836ZM51.3062 90.3281L59.8739 105.75H81.1261L89.6939 90.3281L81.1261 74.9062H59.8739L51.3062 90.3281ZM43.673 94.7344H22.4208L13.8531 110.156L22.4208 125.578H43.673L52.2407 110.156L43.673 94.7344ZM59.8739 66.0938H81.1261L89.6939 50.6719L81.1261 35.25H59.8739L51.3062 50.6719L59.8739 66.0938ZM88.7593 110.156L97.327 94.7344H118.579L127.147 110.156L118.579 125.578H97.327L88.7593 110.156ZM88.7593 30.8438L97.327 46.2656H118.579L127.147 30.8438L118.579 15.4219H97.327L88.7593 30.8438Z" fill="#573459"/>
</svg>
