<svg width="410" height="443" viewBox="0 0 410 443" fill="none" xmlns="http://www.w3.org/2000/svg">
<g clip-path="url(#clip0_470_75)">
<path d="M410 302.807V124.931C410 106.697 400.255 89.8926 384.52 80.7754L230.48 -8.16255C214.745 -17.2798 195.255 -17.2798 179.52 -8.16255L25.4797 80.7754C9.74488 89.8926 0 106.697 0 124.931V302.807C0 321.042 9.74488 337.846 25.4797 346.963L179.52 435.901C195.255 445.019 214.745 445.019 230.48 435.901L384.52 346.963C400.345 337.846 410 321.042 410 302.807Z" fill="#47284D"/>
</g>
<path d="M396.895 297.924V131.688C396.895 114.647 387.773 98.942 373.045 90.4214L228.851 7.30355C214.122 -1.21707 195.879 -1.21707 181.15 7.30355L36.9563 90.4214C22.2274 98.942 13.1055 114.647 13.1055 131.688V297.924C13.1055 314.965 22.2274 330.67 36.9563 339.19L181.15 422.308C195.879 430.829 214.122 430.829 228.851 422.308L373.045 339.19C387.857 330.67 396.895 314.965 396.895 297.924Z" fill="url(#paint0_linear_470_75)"/>
<defs>
<linearGradient id="paint0_linear_470_75" x1="205" y1="0.913086" x2="205" y2="428.698" gradientUnits="userSpaceOnUse">
<stop stop-color="#F0E7F0"/>
<stop offset="1" stop-color="white"/>
</linearGradient>
<clipPath id="clip0_470_75">
<rect width="410" height="218.105" fill="white" transform="translate(0 224.634)"/>
</clipPath>
</defs>
</svg>
