<svg width="1600" height="256" viewBox="0 0 1600 256" fill="none" xmlns="http://www.w3.org/2000/svg">
<path d="M37.8851 57.1925C33.3247 52.9761 31.0444 47.7428 31.0444 41.4975C31.0444 35.2571 33.3247 30.0238 37.8851 25.8041C42.4456 21.5877 48.356 19.4746 55.6197 19.4746C62.8818 19.4746 68.7955 21.5003 73.356 25.5499C77.9165 29.6012 80.1967 34.6628 80.1967 40.7381C80.1967 47.3202 77.9165 52.7632 73.356 57.067C68.7955 61.3693 62.8818 63.522 55.6197 63.522C48.356 63.522 42.4456 61.4138 37.8851 57.1925ZM35.8577 82.5073H75.3834V218.697H35.8577V82.5073Z" fill="#2A222A"/>
<path d="M151.012 209.839C136.23 201.908 124.662 190.979 116.301 177.056C107.94 163.132 103.76 147.481 103.76 130.098C103.76 112.719 107.94 97.0633 116.301 83.1397C124.662 69.2177 136.23 58.2921 151.012 50.3579C165.79 42.4271 182.387 38.46 200.799 38.46C219.207 38.46 235.762 42.4271 250.458 50.3579C265.154 58.2921 276.72 69.2177 285.169 83.1397C293.614 97.0633 297.837 112.719 297.837 130.098C297.837 147.481 293.614 163.132 285.169 177.056C276.72 190.979 265.154 201.908 250.458 209.839C235.762 217.773 219.207 221.735 200.799 221.735C182.387 221.735 165.79 217.773 151.012 209.839ZM229.176 179.588C237.619 174.777 244.25 168.068 249.065 159.464C253.878 150.856 256.286 141.069 256.286 130.098C256.286 119.129 253.878 109.341 249.065 100.733C244.25 92.1271 237.619 85.4179 229.176 80.6088C220.728 75.7998 211.27 73.3945 200.799 73.3945C190.324 73.3945 180.866 75.7998 172.421 80.6088C163.974 85.4179 157.347 92.1271 152.532 100.733C147.719 109.341 145.311 119.129 145.311 130.098C145.311 141.069 147.719 150.856 152.532 159.464C157.347 168.068 163.974 174.777 172.421 179.588C180.866 184.395 190.324 186.802 200.799 186.802C211.27 186.802 220.728 184.395 229.176 179.588Z" fill="#2A222A"/>
<path d="M441.747 218.698L407.543 169.336H369.79V218.698H328.746V41.498H405.516C421.224 41.498 434.863 44.1164 446.434 49.3464C458.002 54.5797 466.913 62.0038 473.164 71.6218C479.41 81.2416 482.538 92.6327 482.538 105.797C482.538 118.959 479.372 130.313 473.037 139.845C466.704 149.38 457.708 156.677 446.054 161.742L485.833 218.698H441.747ZM431.358 82.8875C424.937 77.5717 415.564 74.9137 403.235 74.9137H369.79V136.68H403.235C415.564 136.68 424.937 133.983 431.358 128.579C437.776 123.181 440.986 115.587 440.986 105.797C440.986 95.8404 437.776 88.2034 431.358 82.8875Z" fill="#2A222A"/>
<path d="M634.806 127.313H672.304V199.207C662.676 206.464 651.528 212.031 638.861 215.914C626.192 219.794 613.436 221.735 600.602 221.735C582.189 221.735 565.637 217.813 550.943 209.964C536.247 202.116 524.719 191.23 516.358 177.31C507.997 163.386 503.816 147.652 503.816 130.098C503.816 112.549 507.997 96.809 516.358 82.8871C524.719 68.9635 536.331 58.0791 551.196 50.2325C566.057 42.3841 582.779 38.46 601.363 38.46C616.901 38.46 631.006 41.0783 643.674 46.3083C656.343 51.5416 666.984 59.1357 675.597 69.0906L649.247 93.3917C636.579 80.0624 621.291 73.3945 603.388 73.3945C592.071 73.3945 582.019 75.7602 573.238 80.4817C564.454 85.2082 557.613 91.8729 552.716 100.481C547.815 109.087 545.368 118.959 545.368 130.098C545.368 141.069 547.815 150.856 552.716 159.464C557.613 168.068 564.411 174.777 573.112 179.588C581.809 184.395 591.734 186.802 602.883 186.802C614.704 186.802 625.345 184.27 634.806 179.208V127.313Z" fill="#2A222A"/>
<path d="M827.11 180.728H744.767L729.058 218.698H686.999L766.049 41.498H806.587L885.893 218.698H842.82L827.11 180.728ZM814.188 149.592L786.065 81.7484L757.941 149.592H814.188Z" fill="#2A222A"/>
<path d="M1067.05 41.498V218.698H1033.35L944.921 111.113V218.698H904.383V41.498H938.335L1026.51 149.083V41.498H1067.05Z" fill="#2A222A"/>
<path d="M1263.15 142.628C1268.89 150.14 1271.76 159.378 1271.76 170.347C1271.76 185.875 1265.72 197.814 1253.64 206.168C1241.57 214.521 1223.96 218.698 1200.82 218.698H1109.1V41.498H1195.75C1217.37 41.498 1233.97 45.6352 1245.53 53.9028C1257.1 62.1738 1262.89 73.3949 1262.89 87.5711C1262.89 96.1772 1260.82 103.859 1256.68 110.606C1252.54 117.358 1246.76 122.674 1239.33 126.554C1249.46 129.763 1257.4 135.122 1263.15 142.628ZM1149.89 72.3813V114.15H1190.68C1200.82 114.15 1208.5 112.379 1213.74 108.835C1218.97 105.29 1221.59 100.062 1221.59 93.1395C1221.59 86.2223 1218.97 81.0319 1213.74 77.5717C1208.5 74.1147 1200.82 72.3813 1190.68 72.3813H1149.89ZM1222.23 182.497C1227.71 178.954 1230.46 173.474 1230.46 166.045C1230.46 151.361 1219.57 144.022 1197.78 144.022H1149.89V187.813H1197.78C1208.59 187.813 1216.73 186.043 1222.23 182.497Z" fill="#2A222A"/>
<path d="M1302.92 41.498H1343.97V218.698H1302.92V41.498Z" fill="#2A222A"/>
<path d="M1422.13 209.839C1407.35 201.908 1395.78 190.979 1387.42 177.056C1379.06 163.132 1374.88 147.481 1374.88 130.098C1374.88 112.719 1379.06 97.0633 1387.42 83.1397C1395.78 69.2177 1407.35 58.2921 1422.13 50.3579C1436.91 42.4271 1453.5 38.46 1471.92 38.46C1490.32 38.46 1506.88 42.4271 1521.58 50.3579C1536.27 58.2921 1547.84 69.2177 1556.29 83.1397C1564.73 97.0633 1568.96 112.719 1568.96 130.098C1568.96 147.481 1564.73 163.132 1556.29 177.056C1547.84 190.979 1536.27 201.908 1521.58 209.839C1506.88 217.773 1490.32 221.735 1471.92 221.735C1453.5 221.735 1436.91 217.773 1422.13 209.839ZM1500.29 179.588C1508.74 174.777 1515.37 168.068 1520.18 159.464C1525 150.856 1527.4 141.069 1527.4 130.098C1527.4 119.129 1525 109.341 1520.18 100.733C1515.37 92.1271 1508.74 85.4179 1500.29 80.6088C1491.84 75.7998 1482.39 73.3945 1471.92 73.3945C1461.44 73.3945 1451.98 75.7998 1443.54 80.6088C1435.09 85.4179 1428.46 92.1271 1423.65 100.733C1418.84 109.341 1416.43 119.129 1416.43 130.098C1416.43 141.069 1418.84 150.856 1423.65 159.464C1428.46 168.068 1435.09 174.777 1443.54 179.588C1451.98 184.395 1461.44 186.802 1471.92 186.802C1482.39 186.802 1491.84 184.395 1500.29 179.588Z" fill="#2A222A"/>
</svg>
