<svg width="1600" height="257" viewBox="0 0 1600 257" fill="none" xmlns="http://www.w3.org/2000/svg">
<path d="M37.8856 57.6925C33.3252 53.4761 31.0449 48.2428 31.0449 41.9975C31.0449 35.7571 33.3252 30.5238 37.8856 26.3041C42.4461 22.0877 48.3565 19.9746 55.6202 19.9746C62.8823 19.9746 68.796 22.0003 73.3565 26.0499C77.917 30.1012 80.1972 35.1628 80.1972 41.2381C80.1972 47.8202 77.917 53.2632 73.3565 57.567C68.796 61.8693 62.8823 64.022 55.6202 64.022C48.3565 64.022 42.4461 61.9138 37.8856 57.6925ZM35.8582 83.0073H75.3839V219.197H35.8582V83.0073Z" fill="#4B2A57"/>
<path d="M151.012 210.339C136.23 202.408 124.662 191.479 116.301 177.556C107.94 163.632 103.76 147.981 103.76 130.598C103.76 113.219 107.94 97.5633 116.301 83.6397C124.662 69.7177 136.23 58.7921 151.012 50.8579C165.79 42.9271 182.387 38.96 200.799 38.96C219.207 38.96 235.762 42.9271 250.458 50.8579C265.154 58.7921 276.72 69.7177 285.169 83.6397C293.614 97.5633 297.837 113.219 297.837 130.598C297.837 147.981 293.614 163.632 285.169 177.556C276.72 191.479 265.154 202.408 250.458 210.339C235.762 218.273 219.207 222.235 200.799 222.235C182.387 222.235 165.79 218.273 151.012 210.339ZM229.176 180.088C237.619 175.277 244.25 168.568 249.065 159.964C253.878 151.356 256.286 141.569 256.286 130.598C256.286 119.629 253.878 109.841 249.065 101.233C244.25 92.6271 237.619 85.9179 229.176 81.1088C220.728 76.2998 211.27 73.8945 200.799 73.8945C190.324 73.8945 180.866 76.2998 172.421 81.1088C163.974 85.9179 157.347 92.6271 152.532 101.233C147.719 109.841 145.311 119.629 145.311 130.598C145.311 141.569 147.719 151.356 152.532 159.964C157.347 168.568 163.974 175.277 172.421 180.088C180.866 184.895 190.324 187.302 200.799 187.302C211.27 187.302 220.728 184.895 229.176 180.088Z" fill="#4B2A57"/>
<path d="M441.747 219.198L407.543 169.836H369.79V219.198H328.746V41.998H405.516C421.224 41.998 434.863 44.6164 446.434 49.8464C458.002 55.0797 466.913 62.5038 473.164 72.1218C479.41 81.7416 482.538 93.1327 482.538 106.297C482.538 119.459 479.372 130.813 473.037 140.345C466.704 149.88 457.708 157.177 446.054 162.242L485.833 219.198H441.747ZM431.358 83.3875C424.937 78.0717 415.564 75.4137 403.235 75.4137H369.79V137.18H403.235C415.564 137.18 424.937 134.483 431.358 129.079C437.776 123.681 440.986 116.087 440.986 106.297C440.986 96.3404 437.776 88.7034 431.358 83.3875Z" fill="#4B2A57"/>
<path d="M634.806 127.813H672.304V199.707C662.676 206.964 651.528 212.531 638.861 216.414C626.192 220.294 613.436 222.235 600.602 222.235C582.189 222.235 565.637 218.313 550.943 210.464C536.247 202.616 524.719 191.73 516.358 177.81C507.997 163.886 503.816 148.152 503.816 130.598C503.816 113.049 507.997 97.309 516.358 83.3871C524.719 69.4635 536.331 58.5791 551.196 50.7325C566.057 42.8841 582.779 38.96 601.363 38.96C616.901 38.96 631.006 41.5783 643.674 46.8083C656.343 52.0416 666.984 59.6357 675.597 69.5906L649.247 93.8917C636.579 80.5624 621.291 73.8945 603.388 73.8945C592.071 73.8945 582.019 76.2602 573.238 80.9817C564.454 85.7082 557.613 92.3729 552.716 100.981C547.815 109.587 545.368 119.459 545.368 130.598C545.368 141.569 547.815 151.356 552.716 159.964C557.613 168.568 564.411 175.277 573.112 180.088C581.809 184.895 591.734 187.302 602.883 187.302C614.704 187.302 625.345 184.77 634.806 179.708V127.813Z" fill="#4B2A57"/>
<path d="M827.11 181.228H744.767L729.058 219.198H686.999L766.049 41.998H806.587L885.893 219.198H842.82L827.11 181.228ZM814.188 150.092L786.065 82.2484L757.941 150.092H814.188Z" fill="#4B2A57"/>
<path d="M1067.05 41.998V219.198H1033.35L944.921 111.613V219.198H904.383V41.998H938.335L1026.51 149.583V41.998H1067.05Z" fill="#4B2A57"/>
<path d="M1263.15 143.128C1268.89 150.64 1271.76 159.878 1271.76 170.847C1271.76 186.375 1265.72 198.314 1253.64 206.668C1241.57 215.021 1223.96 219.198 1200.82 219.198H1109.1V41.998H1195.75C1217.37 41.998 1233.97 46.1352 1245.53 54.4028C1257.1 62.6738 1262.89 73.8949 1262.89 88.0711C1262.89 96.6772 1260.82 104.359 1256.69 111.106C1252.54 117.858 1246.76 123.174 1239.33 127.054C1249.46 130.263 1257.4 135.622 1263.15 143.128ZM1149.89 72.8813V114.65H1190.68C1200.82 114.65 1208.5 112.879 1213.74 109.335C1218.97 105.79 1221.59 100.562 1221.59 93.6395C1221.59 86.7223 1218.97 81.5319 1213.74 78.0717C1208.5 74.6147 1200.82 72.8813 1190.68 72.8813H1149.89ZM1222.23 182.997C1227.71 179.454 1230.46 173.974 1230.46 166.545C1230.46 151.861 1219.57 144.522 1197.78 144.522H1149.89V188.313H1197.78C1208.59 188.313 1216.73 186.543 1222.23 182.997Z" fill="#4B2A57"/>
<path d="M1302.93 41.998H1343.97V219.198H1302.93V41.998Z" fill="#4B2A57"/>
<path d="M1422.13 210.339C1407.35 202.408 1395.78 191.479 1387.42 177.556C1379.06 163.632 1374.88 147.981 1374.88 130.598C1374.88 113.219 1379.06 97.5633 1387.42 83.6397C1395.78 69.7177 1407.35 58.7921 1422.13 50.8579C1436.91 42.9271 1453.5 38.96 1471.92 38.96C1490.32 38.96 1506.88 42.9271 1521.58 50.8579C1536.27 58.7921 1547.84 69.7177 1556.29 83.6397C1564.73 97.5633 1568.95 113.219 1568.95 130.598C1568.95 147.981 1564.73 163.632 1556.29 177.556C1547.84 191.479 1536.27 202.408 1521.58 210.339C1506.88 218.273 1490.32 222.235 1471.92 222.235C1453.5 222.235 1436.91 218.273 1422.13 210.339ZM1500.29 180.088C1508.74 175.277 1515.37 168.568 1520.18 159.964C1525 151.356 1527.4 141.569 1527.4 130.598C1527.4 119.629 1525 109.841 1520.18 101.233C1515.37 92.6271 1508.74 85.9179 1500.29 81.1088C1491.84 76.2998 1482.39 73.8945 1471.92 73.8945C1461.44 73.8945 1451.98 76.2998 1443.54 81.1088C1435.09 85.9179 1428.46 92.6271 1423.65 101.233C1418.84 109.841 1416.43 119.629 1416.43 130.598C1416.43 141.569 1418.84 151.356 1423.65 159.964C1428.46 168.568 1435.09 175.277 1443.54 180.088C1451.98 184.895 1461.44 187.302 1471.92 187.302C1482.39 187.302 1491.84 184.895 1500.29 180.088Z" fill="#4B2A57"/>
</svg>
