<svg width="215" height="33" viewBox="0 0 215 33" fill="none" xmlns="http://www.w3.org/2000/svg">
<path d="M1.39615 6.45263C0.761232 5.85377 0.443771 5.11046 0.443771 4.22341C0.443771 3.33707 0.761232 2.59376 1.39615 1.99442C2.03108 1.39555 2.85394 1.09542 3.86522 1.09542C4.87626 1.09542 5.69959 1.38313 6.33451 1.95831C6.96944 2.53373 7.2869 3.25265 7.2869 4.11555C7.2869 5.05043 6.96944 5.82352 6.33451 6.43481C5.69959 7.04587 4.87626 7.35164 3.86522 7.35164C2.85394 7.35164 2.03108 7.05221 1.39615 6.45263ZM1.11389 10.0482H6.61678V29.3918H1.11389V10.0482Z" fill="white"/>
<path d="M17.1459 28.1336C15.0879 27.0071 13.4774 25.4548 12.3134 23.4772C11.1493 21.4996 10.5673 19.2767 10.5673 16.8076C10.5673 14.3392 11.1493 12.1156 12.3134 10.138C13.4774 8.1606 15.0879 6.6088 17.1459 5.48188C19.2034 4.35543 21.514 3.79197 24.0774 3.79197C26.6403 3.79197 28.9451 4.35543 30.9911 5.48188C33.0371 6.6088 34.6474 8.1606 35.8236 10.138C36.9994 12.1156 37.5874 14.3392 37.5874 16.8076C37.5874 19.2767 36.9994 21.4996 35.8236 23.4772C34.6474 25.4548 33.0371 27.0071 30.9911 28.1336C28.9451 29.2605 26.6403 29.8232 24.0774 29.8232C21.514 29.8232 19.2034 29.2605 17.1459 28.1336ZM28.0281 23.8369C29.2037 23.1536 30.1268 22.2007 30.7972 20.9786C31.4673 19.756 31.8025 18.366 31.8025 16.8076C31.8025 15.2497 31.4673 13.8595 30.7972 12.6369C30.1268 11.4145 29.2037 10.4616 28.0281 9.77853C26.8519 9.09548 25.5351 8.75384 24.0774 8.75384C22.6191 8.75384 21.3023 9.09548 20.1266 9.77853C18.9506 10.4616 18.0279 11.4145 17.3575 12.6369C16.6874 13.8595 16.3522 15.2497 16.3522 16.8076C16.3522 18.366 16.6874 19.756 17.3575 20.9786C18.0279 22.2007 18.9506 23.1536 20.1266 23.8369C21.3023 24.5197 22.6191 24.8616 24.0774 24.8616C25.5351 24.8616 26.8519 24.5197 28.0281 23.8369Z" fill="white"/>
<path d="M57.6229 29.3918L52.8609 22.3808H47.6049V29.3918H41.8906V4.22341H52.5787C54.7657 4.22341 56.6645 4.5953 58.2755 5.33814C59.886 6.08145 61.1267 7.13592 61.9969 8.50201C62.8665 9.86834 63.3019 11.4863 63.3019 13.356C63.3019 15.2256 62.8612 16.8381 61.9792 18.192C61.0974 19.5464 59.8451 20.5828 58.2226 21.3022L63.7607 29.3918H57.6229ZM56.1766 10.1021C55.2826 9.34708 53.9776 8.96957 52.2612 8.96957H47.6049V17.7425H52.2612C53.9776 17.7425 55.2826 17.3593 56.1766 16.5919C57.0701 15.8251 57.517 14.7465 57.517 13.356C57.517 11.9419 57.0701 10.8571 56.1766 10.1021Z" fill="white"/>
<path d="M84.5012 16.412H89.7218V26.6235C88.3814 27.6543 86.8293 28.445 85.0657 28.9965C83.302 29.5475 81.5261 29.8232 79.7393 29.8232C77.1757 29.8232 74.8713 29.2661 72.8256 28.1514C70.7795 27.0367 69.1745 25.4905 68.0105 23.5133C66.8465 21.5357 66.2645 19.3009 66.2645 16.8076C66.2645 14.3151 66.8465 12.0795 68.0105 10.1021C69.1745 8.12449 70.7913 6.57855 72.8608 5.46406C74.9298 4.34933 77.2578 3.79197 79.8451 3.79197C82.0085 3.79197 83.9721 4.16385 85.7359 4.90669C87.4996 5.65 88.9811 6.72862 90.1803 8.14255L86.5118 11.5941C84.7481 9.70092 82.6197 8.75384 80.1272 8.75384C78.5516 8.75384 77.152 9.08986 75.9295 9.76048C74.7066 10.4318 73.7542 11.3784 73.0724 12.601C72.3901 13.8233 72.0494 15.2256 72.0494 16.8076C72.0494 18.366 72.3901 19.756 73.0724 20.9786C73.7542 22.2007 74.7006 23.1536 75.9121 23.8369C77.1228 24.5197 78.5047 24.8616 80.0568 24.8616C81.7025 24.8616 83.184 24.5019 84.5012 23.783V16.412Z" fill="white"/>
<path d="M111.274 23.9987H99.8102L97.6232 29.3918H91.7676L102.773 4.22341H108.417L119.458 29.3918H113.461L111.274 23.9987ZM109.475 19.5764L105.56 9.94032L101.644 19.5764H109.475Z" fill="white"/>
<path d="M144.679 4.22341V29.3918H139.987L127.676 14.1111V29.3918H122.033V4.22341H126.759L139.035 19.5042V4.22341H144.679Z" fill="white"/>
<path d="M171.981 18.5873C172.78 19.6542 173.18 20.9664 173.18 22.5243C173.18 24.7298 172.339 26.4256 170.658 27.6121C168.976 28.7986 166.524 29.3918 163.303 29.3918H150.534V4.22341H162.598C165.607 4.22341 167.918 4.81102 169.529 5.98531C171.14 7.16007 171.945 8.75384 171.945 10.7673C171.945 11.9897 171.657 13.0807 171.081 14.0391C170.505 14.9981 169.699 15.7531 168.665 16.3042C170.076 16.76 171.181 17.5211 171.981 18.5873ZM156.213 8.60987V14.5425H161.892C163.303 14.5425 164.373 14.2909 165.102 13.7875C165.831 13.284 166.195 12.5414 166.195 11.5582C166.195 10.5758 165.831 9.83856 165.102 9.34708C164.373 8.85608 163.303 8.60987 161.892 8.60987H156.213ZM166.284 24.2501C167.048 23.7469 167.43 22.9684 167.43 21.9132C167.43 19.8277 165.913 18.7852 162.88 18.7852H156.213V25.0051H162.88C164.385 25.0051 165.519 24.7537 166.284 24.2501Z" fill="white"/>
<path d="M177.519 4.22341H183.233V29.3918H177.519V4.22341Z" fill="white"/>
<path d="M194.115 28.1336C192.057 27.0071 190.446 25.4548 189.282 23.4772C188.118 21.4996 187.536 19.2767 187.536 16.8076C187.536 14.3392 188.118 12.1156 189.282 10.138C190.446 8.1606 192.057 6.6088 194.115 5.48188C196.173 4.35543 198.483 3.79197 201.046 3.79197C203.609 3.79197 205.914 4.35543 207.96 5.48188C210.006 6.6088 211.616 8.1606 212.793 10.138C213.968 12.1156 214.556 14.3392 214.556 16.8076C214.556 19.2767 213.968 21.4996 212.793 23.4772C211.616 25.4548 210.006 27.0071 207.96 28.1336C205.914 29.2605 203.609 29.8232 201.046 29.8232C198.483 29.8232 196.173 29.2605 194.115 28.1336ZM204.997 23.8369C206.173 23.1536 207.096 22.2007 207.766 20.9786C208.436 19.756 208.771 18.366 208.771 16.8076C208.771 15.2497 208.436 13.8595 207.766 12.6369C207.096 11.4145 206.173 10.4616 204.997 9.77853C203.821 9.09548 202.504 8.75384 201.046 8.75384C199.588 8.75384 198.271 9.09548 197.095 9.77853C195.919 10.4616 194.997 11.4145 194.327 12.6369C193.656 13.8595 193.321 15.2497 193.321 16.8076C193.321 18.366 193.656 19.756 194.327 20.9786C194.997 22.2007 195.919 23.1536 197.095 23.8369C198.271 24.5197 199.588 24.8616 201.046 24.8616C202.504 24.8616 203.821 24.5197 204.997 23.8369Z" fill="white"/>
</svg>
