<svg width="14" height="13" viewBox="0 0 14 13" fill="none" xmlns="http://www.w3.org/2000/svg">
<path fill-rule="evenodd" clip-rule="evenodd" d="M6 11.75C6 11.1977 6.44772 10.75 7 10.75H13C13.5523 10.75 14 11.1977 14 11.75C14 12.3023 13.5523 12.75 13 12.75H7C6.44772 12.75 6 12.3023 6 11.75ZM0 1.75C0 1.19771 0.44771 0.75 1 0.75H13C13.5523 0.75 14 1.19771 14 1.75C14 2.30228 13.5523 2.75 13 2.75H1C0.44771 2.75 0 2.30228 0 1.75ZM0 6.75C0 6.19772 0.44771 5.75 1 5.75H13C13.5523 5.75 14 6.19772 14 6.75C14 7.3023 13.5523 7.75 13 7.75H1C0.44771 7.75 0 7.3023 0 6.75Z" fill="white"/>
</svg>
