<svg width="28" height="29" viewBox="0 0 28 29" fill="none" xmlns="http://www.w3.org/2000/svg">
<path fill-rule="evenodd" clip-rule="evenodd" d="M17.504 22.2201L17.4813 22.2121L17.4613 22.2387L16.3413 23.8401L16.244 23.9694C14.2787 26.5681 13.1867 28.0134 11.848 28.0134L11.8613 28.0001C11.688 28.0001 11.5147 27.9734 11.3413 27.9334C9.64798 27.4801 9.64798 25.6401 9.64798 21.9734V19.5067L8.87465 19.2401C3.26132 17.2934 0.47465 16.3201 0.327984 13.9067C0.19465 11.4734 2.87465 10.2067 8.20798 7.6854L8.24798 7.66673L18.008 3.0534C22.408 0.960066 24.6213 -0.0799333 26.408 1.24007C28.1947 2.56007 27.7947 4.94673 26.9947 9.6934L25.7147 17.2934L25.7053 17.3441C25.1773 20.4054 24.892 22.0587 23.4347 22.9067C22.928 23.2001 22.4213 23.3334 21.8347 23.3334L21.8213 23.3201C20.7147 23.3201 19.3787 22.8627 17.504 22.2201ZM11.648 20.1974V21.9734C11.648 23.8134 11.648 25.7067 11.928 26.0534C12.2747 25.9201 13.528 24.2667 14.728 22.6667L15.524 21.5361L11.648 20.1974ZM9.08798 9.46673C4.96798 11.4134 2.26132 12.6934 2.31465 13.7867C2.38132 14.8667 5.20798 15.8534 9.48798 17.3334L10.0333 17.5214L19.94 7.6134C20.3267 7.22673 20.9667 7.22673 21.3533 7.6134C21.74 8.00007 21.74 8.64007 21.3533 9.02673L12.1347 18.2467L18.0213 20.2801C20.608 21.1734 21.768 21.5467 22.408 21.1734C23.0347 20.8001 23.2613 19.6267 23.7147 17.0001L24.9947 9.38673L25.0107 9.29073C25.6013 5.73073 25.9867 3.40807 25.1947 2.82673C24.3867 2.23073 22.3293 3.20007 18.92 4.80673L18.848 4.84007L9.08798 9.4534V9.46673Z" fill="#4C294E"/>
</svg>
